SplineFontDB: 3.2
FontName: regular
FullName: Jet Impulse Regular Italic
FamilyName: Jet Impulse
Weight: Book
Copyright: 
Version: 1.0
DefaultBaseFilename: Jet Impulse
ItalicAngle: 0
UnderlinePosition: 77
UnderlineWidth: 51
Ascent: 819
Descent: 205
InvalidEm: 0
sfntRevision: 0x00010000
LayerCount: 2
Layer: 0 1 "Sfondo" 1
Layer: 1 1 "Fore" 0
XUID: [1021 394 1952875658 27451]
StyleMap: 0x0001
FSType: 4
OS2Version: 2
OS2_WeightWidthSlopeOnly: 0
OS2_UseTypoMetrics: 0
CreationTime: 1768523932
ModificationTime: 1778144321
PfmFamily: 81
TTFWeight: 400
TTFWidth: 5
LineGap: 0
VLineGap: 90
Panose: 0 0 4 0 0 0 0 0 0 0
OS2TypoAscent: 576
OS2TypoAOffset: 1
OS2TypoDescent: -64
OS2TypoDOffset: 1
OS2TypoLinegap: 0
OS2WinAscent: 704
OS2WinAOffset: 1
OS2WinDescent: 64
OS2WinDOffset: 1
HheadAscent: 704
HheadAOffset: 1
HheadDescent: -64
HheadDOffset: 1
OS2SubXSize: 512
OS2SubYSize: 512
OS2SubXOff: 0
OS2SubYOff: -32
OS2SupXSize: 512
OS2SupYSize: 512
OS2SupXOff: 0
OS2SupYOff: 512
OS2StrikeYSize: 51
OS2StrikeYPos: 204
OS2CapHeight: 576
OS2XHeight: 384
OS2Vendor: 'FSTR'
OS2CodePages: 00000193.00000000
OS2UnicodeRanges: 00000003.00000000.00000000.00000000
MarkAttachClasses: 1
DEI: 91125
LangName: 1033
Encoding: UnicodeBmp
UnicodeInterp: none
NameList: AGL For New Fonts
DisplaySize: -48
AntiAlias: 1
FitToEm: 0
WinInfo: 60 20 4
BeginPrivate: 0
EndPrivate
TeXData: 1 0 0 410624 205312 136868 488448 1048576 136868 783286 444596 497025 792723 393216 433062 380633 303038 157286 324010 404750 52429 2506097 1059062 262144
BeginChars: 65536 69

StartChar: ,
Encoding: 44 44 0
Width: 165
VWidth: 1000
Flags: W
LayerCount: 2
Fore
SplineSet
114.249023438 56.63671875 m 0,0,1
 102.279296875 -11.2451171875 102.279296875 -11.2451171875 84.955078125 -44.375 c 128,-1,2
 67.6298828125 -77.505859375 67.6298828125 -77.505859375 38.8251953125 -89.9462890625 c 128,-1,3
 10.0185546875 -102.387695312 10.0185546875 -102.387695312 -44.634765625 -102.387695312 c 1,4,5
 -40.7529296875 -80.3759765625 -40.7529296875 -80.3759765625 -31.0185546875 -71.0263671875 c 128,-1,6
 -21.2841796875 -61.67578125 -21.2841796875 -61.67578125 -9.51171875 -60.365234375 c 128,-1,7
 2.259765625 -59.0537109375 2.259765625 -59.0537109375 14.23828125 -56.5654296875 c 128,-1,8
 26.2177734375 -54.076171875 26.2177734375 -54.076171875 36.8525390625 -39.623046875 c 128,-1,9
 47.4873046875 -25.1708984375 47.4873046875 -25.1708984375 52.68359375 4.298828125 c 1,10,11
 31.193359375 4.298828125 31.193359375 4.298828125 18.4169921875 19.31640625 c 128,-1,12
 5.6416015625 34.3349609375 5.6416015625 34.3349609375 9.57421875 56.63671875 c 0,13,14
 13.30078125 77.7724609375 13.30078125 77.7724609375 31.65234375 93.373046875 c 128,-1,15
 50.0048828125 108.973632812 50.0048828125 108.973632812 71.140625 108.973632812 c 0,16,17
 93.4423828125 108.973632812 93.4423828125 108.973632812 105.740234375 93.5498046875 c 128,-1,18
 118.038085938 78.1259765625 118.038085938 78.1259765625 114.249023438 56.63671875 c 0,0,1
EndSplineSet
EndChar

StartChar: -
Encoding: 45 45 1
Width: 437
VWidth: 1000
Flags: W
LayerCount: 2
Fore
SplineSet
48.29296875 217.85546875 m 2,0,1
 34.2890625 217.85546875 34.2890625 217.85546875 27.5205078125 218.33984375 c 128,-1,2
 20.7509765625 218.82421875 20.7509765625 218.82421875 12.240234375 221.094726562 c 128,-1,3
 3.7294921875 223.366210938 3.7294921875 223.366210938 1.025390625 229.09765625 c 128,-1,4
 -1.6767578125 234.830078125 -1.6767578125 234.830078125 -0 244.336914062 c 128,-1,5
 1.6767578125 253.84375 1.6767578125 253.84375 6.400390625 259.576171875 c 128,-1,6
 11.1240234375 265.307617188 11.1240234375 265.307617188 20.4375 267.579101562 c 128,-1,7
 29.7490234375 269.849609375 29.7490234375 269.849609375 36.6884765625 270.333984375 c 128,-1,8
 43.626953125 270.818359375 43.626953125 270.818359375 57.630859375 270.818359375 c 2,9,-1
 326.516601562 270.818359375 l 2,10,11
 340.521484375 270.818359375 340.521484375 270.818359375 347.290039062 270.333984375 c 128,-1,12
 354.05859375 269.849609375 354.05859375 269.849609375 362.5703125 267.579101562 c 128,-1,13
 371.080078125 265.307617188 371.080078125 265.307617188 373.784179688 259.576171875 c 128,-1,14
 376.486328125 253.84375 376.486328125 253.84375 374.809570312 244.336914062 c 128,-1,15
 373.1328125 234.830078125 373.1328125 234.830078125 368.409179688 229.09765625 c 128,-1,16
 363.685546875 223.366210938 363.685546875 223.366210938 354.373046875 221.094726562 c 128,-1,17
 345.060546875 218.82421875 345.060546875 218.82421875 338.122070312 218.33984375 c 128,-1,18
 331.18359375 217.85546875 331.18359375 217.85546875 317.178710938 217.85546875 c 2,19,-1
 48.29296875 217.85546875 l 2,0,1
EndSplineSet
EndChar

StartChar: .
Encoding: 46 46 2
Width: 165
VWidth: 1000
Flags: W
LayerCount: 2
Fore
SplineSet
42.8076171875 3.841796875 m 0,0,1
 21.732421875 3.841796875 21.732421875 3.841796875 8.919921875 19.3974609375 c 128,-1,2
 -3.8935546875 34.953125 -3.8935546875 34.953125 -0.1767578125 56.0283203125 c 0,3,4
 3.7763671875 78.451171875 3.7763671875 78.451171875 22.056640625 94.3369140625 c 128,-1,5
 40.3359375 110.22265625 40.3359375 110.22265625 61.5654296875 110.22265625 c 0,6,7
 83.953125 110.22265625 83.953125 110.22265625 96.0830078125 94.517578125 c 128,-1,8
 108.213867188 78.8125 108.213867188 78.8125 104.196289062 56.0283203125 c 0,9,10
 100.41796875 34.6005859375 100.41796875 34.6005859375 82.7314453125 19.220703125 c 128,-1,11
 65.044921875 3.841796875 65.044921875 3.841796875 42.8076171875 3.841796875 c 0,0,1
EndSplineSet
EndChar

StartChar: 0
Encoding: 48 48 3
Width: 595
VWidth: 1000
Flags: W
LayerCount: 2
Fore
SplineSet
264.884765625 3.6376953125 m 2,0,-1
 157.08203125 3.6376953125 l 2,1,2
 115.268554688 3.6376953125 115.268554688 3.6376953125 80.68359375 14.7041015625 c 128,-1,3
 46.099609375 25.771484375 46.099609375 25.771484375 18.994140625 49.0146484375 c 128,-1,4
 -8.111328125 72.2578125 -8.111328125 72.2578125 -18.9130859375 113.861328125 c 128,-1,5
 -29.7158203125 155.465820312 -29.7158203125 155.465820312 -19.9052734375 211.10546875 c 2,6,-1
 18.8291015625 430.778320312 l 2,7,8
 29.0244140625 488.595703125 29.0244140625 488.595703125 54.708984375 531.53125 c 128,-1,9
 80.3935546875 574.466796875 80.3935546875 574.466796875 115.858398438 598.2265625 c 128,-1,10
 151.323242188 621.986328125 151.323242188 621.986328125 189.711914062 633.166992188 c 128,-1,11
 228.100585938 644.34765625 228.100585938 644.34765625 270.056640625 644.34765625 c 2,12,-1
 377.859375 644.34765625 l 2,13,14
 419.815429688 644.34765625 419.815429688 644.34765625 454.260742188 633.166992188 c 128,-1,15
 488.706054688 621.986328125 488.706054688 621.986328125 515.791992188 598.2265625 c 128,-1,16
 542.877929688 574.466796875 542.877929688 574.466796875 553.422851562 531.53125 c 128,-1,17
 563.966796875 488.595703125 563.966796875 488.595703125 553.771484375 430.778320312 c 2,18,-1
 516.11328125 217.208007812 l 2,19,20
 505.918945312 159.390625 505.918945312 159.390625 480.233398438 116.455078125 c 128,-1,21
 454.547851562 73.5185546875 454.547851562 73.5185546875 419.083007812 49.7587890625 c 128,-1,22
 383.618164062 25.9990234375 383.618164062 25.9990234375 345.229492188 14.818359375 c 128,-1,23
 306.840820312 3.6376953125 306.840820312 3.6376953125 264.884765625 3.6376953125 c 2,0,-1
32.0302734375 148.051757812 m 1,24,-1
 491.060546875 536.545898438 l 1,25,26
 461.081054688 591.463867188 461.081054688 591.463867188 368.534179688 591.463867188 c 2,27,-1
 260.731445312 591.463867188 l 2,28,29
 181.805664062 591.463867188 181.805664062 591.463867188 133.921875 551.741210938 c 128,-1,30
 86.0380859375 512.017578125 86.0380859375 512.017578125 72.7890625 436.879882812 c 2,31,-1
 34.0546875 217.208007812 l 2,32,33
 27.837890625 181.948242188 27.837890625 181.948242188 32.0302734375 148.051757812 c 1,24,-1
43.880859375 111.439453125 m 1,34,35
 73.8603515625 56.521484375 73.8603515625 56.521484375 166.407226562 56.521484375 c 2,36,-1
 274.209960938 56.521484375 l 2,37,38
 353.536132812 56.521484375 353.536132812 56.521484375 401.388671875 97.201171875 c 128,-1,39
 449.241210938 137.881835938 449.241210938 137.881835938 463.228515625 217.208007812 c 2,40,-1
 500.88671875 430.778320312 l 2,41,42
 507.103515625 466.037109375 507.103515625 466.037109375 502.911132812 499.93359375 c 1,43,-1
 43.880859375 111.439453125 l 1,34,35
EndSplineSet
EndChar

StartChar: 1
Encoding: 49 49 4
Width: 221
VWidth: 1000
Flags: W
LayerCount: 2
Fore
SplineSet
56.4873046875 644.34765625 m 1,0,-1
 217.172851562 644.34765625 l 1,1,-1
 104.198242188 3.6376953125 l 1,2,-1
 51.314453125 3.6376953125 l 1,3,-1
 154.963867188 591.463867188 l 1,4,-1
 47.162109375 591.463867188 l 1,5,-1
 56.4873046875 644.34765625 l 1,0,-1
EndSplineSet
EndChar

StartChar: 2
Encoding: 50 50 5
Width: 543
VWidth: 1000
Flags: W
LayerCount: 2
Fore
SplineSet
47.232421875 592.16796875 m 1,0,-1
 369.080078125 592.16796875 l 2,1,2
 399.102539062 592.16796875 399.102539062 592.16796875 418.438476562 579.888671875 c 128,-1,3
 437.776367188 567.610351562 437.776367188 567.610351562 445.284179688 552.430664062 c 128,-1,4
 452.791015625 537.25 452.791015625 537.25 454.118164062 513.108398438 c 128,-1,5
 455.444335938 488.965820312 455.444335938 488.965820312 453.903320312 476.360351562 c 128,-1,6
 452.361328125 463.755859375 452.361328125 463.755859375 449.142578125 445.50390625 c 0,7,8
 446.182617188 428.71875 446.182617188 428.71875 443.842773438 419.577148438 c 128,-1,9
 441.501953125 410.434570312 441.501953125 410.434570312 433.419921875 395.458007812 c 128,-1,10
 425.338867188 380.482421875 425.338867188 380.482421875 413.51171875 372.513671875 c 128,-1,11
 401.685546875 364.544921875 401.685546875 364.544921875 379.392578125 358.172851562 c 128,-1,12
 357.098632812 351.80078125 357.098632812 351.80078125 326.696289062 351.80078125 c 2,13,-1
 165.772460938 351.80078125 l 2,14,15
 142.827148438 351.80078125 142.827148438 351.80078125 116.670898438 345.5625 c 128,-1,16
 90.5126953125 339.32421875 90.5126953125 339.32421875 61.3232421875 325.479492188 c 128,-1,17
 32.1318359375 311.634765625 32.1318359375 311.634765625 9.9873046875 283.497070312 c 128,-1,18
 -12.15625 255.360351562 -12.15625 255.360351562 -18.857421875 217.358398438 c 2,19,-1
 -56.5712890625 3.47265625 l 1,20,-1
 318.23828125 3.47265625 l 2,21,22
 343.625976562 3.47265625 343.625976562 3.47265625 364.038085938 10.619140625 c 128,-1,23
 384.44921875 17.7666015625 384.44921875 17.7666015625 396.532226562 26.2021484375 c 128,-1,24
 408.616210938 34.6376953125 408.616210938 34.6376953125 435.538085938 56.4345703125 c 1,25,-1
 7.7666015625 56.4345703125 l 1,26,-1
 36.1416015625 217.358398438 l 2,27,28
 40.412109375 241.576171875 40.412109375 241.576171875 65.4013671875 260.927734375 c 128,-1,29
 90.390625 280.279296875 90.390625 280.279296875 115.38671875 288.540039062 c 128,-1,30
 140.3828125 296.801757812 140.3828125 296.801757812 156.075195312 296.801757812 c 2,31,-1
 316.999023438 296.801757812 l 2,32,33
 400.745117188 296.801757812 400.745117188 296.801757812 444.467773438 325.92578125 c 128,-1,34
 488.192382812 355.048828125 488.192382812 355.048828125 501.626953125 431.244140625 c 2,35,-1
 510.965820312 484.20703125 l 2,36,37
 517.688476562 522.333984375 517.688476562 522.333984375 505.883789062 554.50390625 c 128,-1,38
 494.080078125 586.674804688 494.080078125 586.674804688 471.541015625 605.547851562 c 128,-1,39
 449.00390625 624.419921875 449.00390625 624.419921875 424.299804688 634.775390625 c 128,-1,40
 399.594726562 645.130859375 399.594726562 645.130859375 378.418945312 645.130859375 c 2,41,-1
 164.532226562 645.130859375 l 2,42,43
 139.14453125 645.130859375 139.14453125 645.130859375 118.732421875 637.983398438 c 128,-1,44
 98.3212890625 630.836914062 98.3212890625 630.836914062 86.23828125 622.401367188 c 128,-1,45
 74.1552734375 613.965820312 74.1552734375 613.965820312 47.232421875 592.16796875 c 1,0,-1
EndSplineSet
EndChar

StartChar: 3
Encoding: 51 51 6
Width: 543
VWidth: 1000
Flags: W
LayerCount: 2
Fore
SplineSet
434.657226562 351.717773438 m 1,0,-1
 4.8486328125 351.717773438 l 1,1,-1
 -4.8486328125 296.71875 l 1,2,-1
 424.959960938 296.71875 l 1,3,-1
 401.61328125 164.3125 l 2,4,5
 399.357421875 151.520507812 399.357421875 151.520507812 397.055664062 142.377929688 c 128,-1,6
 394.75390625 133.236328125 394.75390625 133.236328125 385.907226562 115.408203125 c 128,-1,7
 377.059570312 97.5810546875 377.059570312 97.5810546875 364.692382812 86.189453125 c 128,-1,8
 352.32421875 74.798828125 352.32421875 74.798828125 328.752929688 65.5751953125 c 128,-1,9
 305.180664062 56.3515625 305.180664062 56.3515625 274.614257812 56.3515625 c 2,10,-1
 -47.232421875 56.3515625 l 1,11,-1
 -56.5712890625 3.388671875 l 1,12,-1
 265.275390625 3.388671875 l 2,13,14
 426.19921875 3.388671875 426.19921875 3.388671875 454.575195312 164.3125 c 2,15,-1
 501.627929688 431.161132812 l 2,16,17
 515.635742188 510.604492188 515.635742188 510.604492188 460.267578125 577.826171875 c 128,-1,18
 404.899414062 645.046875 404.899414062 645.046875 325.456054688 645.046875 c 2,19,-1
 56.5712890625 645.046875 l 1,20,-1
 47.232421875 592.084960938 l 1,21,-1
 316.1171875 592.084960938 l 2,22,23
 353.5390625 592.084960938 353.5390625 592.084960938 382.479492188 574.586914062 c 128,-1,24
 411.420898438 557.088867188 411.420898438 557.088867188 425.963867188 531.28515625 c 128,-1,25
 440.506835938 505.481445312 440.506835938 505.481445312 446.442382812 478.84765625 c 128,-1,26
 452.377929688 452.212890625 452.377929688 452.212890625 448.666015625 431.161132812 c 2,27,-1
 434.657226562 351.717773438 l 1,0,-1
EndSplineSet
EndChar

StartChar: 4
Encoding: 52 52 7
Width: 544
VWidth: 1000
Flags: W
LayerCount: 2
Fore
SplineSet
53.0634765625 325.009765625 m 2,0,-1
 109.37109375 644.34765625 l 1,1,-1
 56.4873046875 644.34765625 l 1,2,-1
 0.1796875 325.009765625 l 2,3,4
 -7.0830078125 283.821289062 -7.0830078125 283.821289062 20.3505859375 250.514648438 c 128,-1,5
 47.7841796875 217.208007812 47.7841796875 217.208007812 88.97265625 217.208007812 c 2,6,-1
 410.344726562 217.208007812 l 1,7,-1
 372.686523438 3.6376953125 l 1,8,-1
 425.5703125 3.6376953125 l 1,9,-1
 538.544921875 644.34765625 l 1,10,-1
 485.661132812 644.34765625 l 1,11,-1
 419.669921875 270.091796875 l 1,12,-1
 98.2978515625 270.091796875 l 2,13,14
 78.123046875 270.091796875 78.123046875 270.091796875 63.7392578125 287.040039062 c 128,-1,15
 49.3564453125 303.98828125 49.3564453125 303.98828125 53.0634765625 325.009765625 c 2,0,-1
EndSplineSet
EndChar

StartChar: 5
Encoding: 53 53 8
Width: 543
VWidth: 1000
Flags: W
LayerCount: 2
Fore
SplineSet
102.232421875 592.469726562 m 1,0,-1
 530.00390625 592.469726562 l 1,1,-1
 539.342773438 645.431640625 l 1,2,-1
 56.5712890625 645.431640625 l 1,3,-1
 9.5185546875 378.583984375 l 1,4,-1
 331.366210938 378.583984375 l 2,5,6
 371.4296875 378.583984375 371.4296875 378.583984375 399.467773438 345.05859375 c 128,-1,7
 427.504882812 311.534179688 427.504882812 311.534179688 420.291015625 270.622070312 c 2,8,-1
 401.614257812 164.697265625 l 2,9,10
 394.610351562 124.975585938 394.610351562 124.975585938 354.473632812 90.8564453125 c 128,-1,11
 314.336914062 56.736328125 314.336914062 56.736328125 274.615234375 56.736328125 c 2,12,-1
 -47.232421875 56.736328125 l 1,13,14
 -27.994140625 34.9384765625 -27.994140625 34.9384765625 -18.8876953125 26.5029296875 c 128,-1,15
 -9.779296875 18.068359375 -9.779296875 18.068359375 8.1123046875 10.9208984375 c 128,-1,16
 26.0029296875 3.7734375 26.0029296875 3.7734375 51.390625 3.7734375 c 2,17,-1
 265.276367188 3.7734375 l 2,18,19
 286.452148438 3.7734375 286.452148438 3.7734375 314.809570312 14.12890625 c 128,-1,20
 343.166992188 24.484375 343.166992188 24.484375 372.360351562 43.3564453125 c 128,-1,21
 401.553710938 62.2294921875 401.553710938 62.2294921875 424.703125 94.400390625 c 128,-1,22
 447.853515625 126.5703125 447.853515625 126.5703125 454.576171875 164.697265625 c 2,23,-1
 473.252929688 270.622070312 l 2,24,25
 479.9765625 308.749023438 479.9765625 308.749023438 468.170898438 340.919921875 c 128,-1,26
 456.3671875 373.08984375 456.3671875 373.08984375 433.829101562 391.962890625 c 128,-1,27
 411.291015625 410.834960938 411.291015625 410.834960938 386.5859375 421.190429688 c 128,-1,28
 361.880859375 431.545898438 361.880859375 431.545898438 340.705078125 431.545898438 c 2,29,-1
 73.857421875 431.545898438 l 1,30,-1
 102.232421875 592.469726562 l 1,0,-1
EndSplineSet
EndChar

StartChar: 6
Encoding: 54 54 9
Width: 543
VWidth: 1000
Flags: W
LayerCount: 2
Fore
SplineSet
161.103515625 325.750976562 m 2,0,1
 121.381835938 325.750976562 121.381835938 325.750976562 81.24609375 291.630859375 c 128,-1,2
 41.1103515625 257.51171875 41.1103515625 257.51171875 34.1064453125 217.790039062 c 2,3,-1
 24.767578125 164.827148438 l 2,4,5
 17.763671875 125.10546875 17.763671875 125.10546875 45.8671875 90.986328125 c 128,-1,6
 73.9697265625 56.8662109375 73.9697265625 56.8662109375 113.69140625 56.8662109375 c 2,7,-1
 274.615234375 56.8662109375 l 2,8,9
 314.336914062 56.8662109375 314.336914062 56.8662109375 354.473632812 90.986328125 c 128,-1,10
 394.610351562 125.10546875 394.610351562 125.10546875 401.614257812 164.827148438 c 2,11,-1
 410.953125 217.790039062 l 2,12,13
 417.95703125 257.51171875 417.95703125 257.51171875 389.852539062 291.630859375 c 128,-1,14
 361.749023438 325.750976562 361.749023438 325.750976562 322.02734375 325.750976562 c 2,15,-1
 161.103515625 325.750976562 l 2,0,1
331.366210938 378.713867188 m 2,16,17
 352.541992188 378.713867188 352.541992188 378.713867188 377.247070312 368.358398438 c 128,-1,18
 401.952148438 358.002929688 401.952148438 358.002929688 424.490234375 339.130859375 c 128,-1,19
 447.028320312 320.2578125 447.028320312 320.2578125 458.83203125 288.086914062 c 128,-1,20
 470.637695312 255.916992188 470.637695312 255.916992188 463.915039062 217.790039062 c 2,21,-1
 454.576171875 164.827148438 l 2,22,23
 447.852539062 126.700195312 447.852539062 126.700195312 424.703125 94.5302734375 c 128,-1,24
 401.553710938 62.359375 401.553710938 62.359375 372.360351562 43.4873046875 c 128,-1,25
 343.166992188 24.615234375 343.166992188 24.615234375 314.809570312 14.259765625 c 128,-1,26
 286.453125 3.904296875 286.453125 3.904296875 265.27734375 3.904296875 c 2,27,-1
 104.353515625 3.904296875 l 2,28,29
 83.177734375 3.904296875 83.177734375 3.904296875 58.4716796875 14.259765625 c 128,-1,30
 33.7666015625 24.615234375 33.7666015625 24.615234375 11.2294921875 43.4873046875 c 128,-1,31
 -11.30859375 62.359375 -11.30859375 62.359375 -23.11328125 94.5302734375 c 128,-1,32
 -34.9189453125 126.700195312 -34.9189453125 126.700195312 -28.1953125 164.827148438 c 2,33,-1
 18.8564453125 431.67578125 l 2,34,35
 29.06640625 489.579101562 29.06640625 489.579101562 54.7900390625 532.578125 c 128,-1,36
 80.513671875 575.577148438 80.513671875 575.577148438 116.03125 599.372070312 c 128,-1,37
 151.547851562 623.16796875 151.547851562 623.16796875 189.994140625 634.364257812 c 128,-1,38
 228.438476562 645.561523438 228.438476562 645.561523438 270.45703125 645.561523438 c 2,39,-1
 539.341796875 645.561523438 l 1,40,-1
 530.00390625 592.599609375 l 1,41,-1
 261.119140625 592.599609375 l 2,42,43
 181.67578125 592.599609375 181.67578125 592.599609375 133.751953125 551.859375 c 128,-1,44
 85.828125 511.119140625 85.828125 511.119140625 71.8193359375 431.67578125 c 2,45,-1
 62.4814453125 378.713867188 l 1,46,-1
 331.366210938 378.713867188 l 2,16,17
EndSplineSet
EndChar

StartChar: 7
Encoding: 55 55 10
Width: 542
VWidth: 1000
Flags: W
LayerCount: 2
Fore
SplineSet
417.013671875 563.206054688 m 1,0,-1
 422.041992188 591.724609375 l 1,1,-1
 47.232421875 591.724609375 l 1,2,-1
 56.5712890625 644.686523438 l 1,3,-1
 484.342773438 644.686523438 l 1,4,-1
 465.305664062 536.725585938 l 1,5,6
 408.028320312 510.86328125 408.028320312 510.86328125 342.84375 424.29296875 c 128,-1,7
 277.658203125 337.72265625 277.658203125 337.72265625 226.720703125 222.743164062 c 128,-1,8
 175.782226562 107.763671875 175.782226562 107.763671875 157.314453125 3.0283203125 c 1,9,-1
 104.352539062 3.0283203125 l 1,10,11
 122.92578125 108.361328125 122.92578125 108.361328125 174.836914062 229.4609375 c 128,-1,12
 226.747070312 350.560546875 226.747070312 350.560546875 293.471679688 444.056640625 c 128,-1,13
 360.197265625 537.552734375 360.197265625 537.552734375 417.013671875 563.206054688 c 1,0,-1
EndSplineSet
EndChar

StartChar: 8
Encoding: 56 56 11
Width: 543
VWidth: 1000
Flags: W
LayerCount: 2
Fore
SplineSet
208.15625 592.6171875 m 2,0,1
 168.434570312 592.6171875 168.434570312 592.6171875 128.297851562 558.497070312 c 128,-1,2
 88.1611328125 524.376953125 88.1611328125 524.376953125 81.1572265625 484.655273438 c 2,3,-1
 71.8193359375 431.693359375 l 2,4,5
 65.2236328125 394.288085938 65.2236328125 394.288085938 93.85546875 373.26953125 c 128,-1,6
 122.485351562 352.25 122.485351562 352.25 165.772460938 352.25 c 2,7,-1
 326.696289062 352.25 l 2,8,9
 369.982421875 352.25 369.982421875 352.25 406.02734375 373.26953125 c 128,-1,10
 442.0703125 394.288085938 442.0703125 394.288085938 448.666015625 431.693359375 c 2,11,-1
 458.00390625 484.655273438 l 2,12,13
 465.0078125 524.376953125 465.0078125 524.376953125 436.904296875 558.497070312 c 128,-1,14
 408.801757812 592.6171875 408.801757812 592.6171875 369.080078125 592.6171875 c 2,15,-1
 208.15625 592.6171875 l 2,0,1
156.075195312 297.25 m 2,16,17
 112.788085938 297.25 112.788085938 297.25 76.744140625 276.23046875 c 128,-1,18
 40.7001953125 255.211914062 40.7001953125 255.211914062 34.1044921875 217.806640625 c 2,19,-1
 24.7666015625 164.844726562 l 2,20,21
 17.7626953125 125.123046875 17.7626953125 125.123046875 45.8662109375 91.00390625 c 128,-1,22
 73.9697265625 56.8837890625 73.9697265625 56.8837890625 113.69140625 56.8837890625 c 2,23,-1
 274.615234375 56.8837890625 l 2,24,25
 314.336914062 56.8837890625 314.336914062 56.8837890625 354.47265625 91.00390625 c 128,-1,26
 394.609375 125.123046875 394.609375 125.123046875 401.61328125 164.844726562 c 2,27,-1
 410.951171875 217.806640625 l 2,28,29
 417.546875 255.211914062 417.546875 255.211914062 388.916015625 276.23046875 c 128,-1,30
 360.28515625 297.25 360.28515625 297.25 316.999023438 297.25 c 2,31,-1
 156.075195312 297.25 l 2,16,17
378.418945312 645.579101562 m 2,32,33
 399.594726562 645.579101562 399.594726562 645.579101562 424.299804688 635.223632812 c 128,-1,34
 449.00390625 624.868164062 449.00390625 624.868164062 471.541015625 605.99609375 c 128,-1,35
 494.080078125 587.124023438 494.080078125 587.124023438 505.883789062 554.953125 c 128,-1,36
 517.688476562 522.782226562 517.688476562 522.782226562 510.965820312 484.655273438 c 2,37,-1
 501.627929688 431.693359375 l 2,38,39
 494.59375 391.803710938 494.59375 391.803710938 455.33203125 358.786132812 c 128,-1,40
 416.069335938 325.768554688 416.069335938 325.768554688 374.989257812 325.768554688 c 1,41,42
 415.901367188 325.768554688 415.901367188 325.768554688 443.439453125 291.819335938 c 128,-1,43
 470.977539062 257.870117188 470.977539062 257.870117188 463.913085938 217.806640625 c 2,44,-1
 454.575195312 164.844726562 l 2,45,46
 447.852539062 126.717773438 447.852539062 126.717773438 424.702148438 94.5478515625 c 128,-1,47
 401.552734375 62.376953125 401.552734375 62.376953125 372.359375 43.50390625 c 128,-1,48
 343.166015625 24.6318359375 343.166015625 24.6318359375 314.809570312 14.2763671875 c 128,-1,49
 286.452148438 3.9208984375 286.452148438 3.9208984375 265.276367188 3.9208984375 c 2,50,-1
 104.352539062 3.9208984375 l 2,51,52
 83.1767578125 3.9208984375 83.1767578125 3.9208984375 58.4716796875 14.2763671875 c 128,-1,53
 33.7666015625 24.6318359375 33.7666015625 24.6318359375 11.2294921875 43.50390625 c 128,-1,54
 -11.3095703125 62.376953125 -11.3095703125 62.376953125 -23.11328125 94.5478515625 c 128,-1,55
 -34.91796875 126.717773438 -34.91796875 126.717773438 -28.1953125 164.844726562 c 2,56,-1
 -18.857421875 217.806640625 l 2,57,58
 -11.79296875 257.870117188 -11.79296875 257.870117188 27.7177734375 291.819335938 c 128,-1,59
 67.228515625 325.768554688 67.228515625 325.768554688 108.140625 325.768554688 c 1,60,61
 67.060546875 325.768554688 67.060546875 325.768554688 39.4423828125 358.786132812 c 128,-1,62
 11.8232421875 391.803710938 11.8232421875 391.803710938 18.857421875 431.693359375 c 2,63,-1
 28.1953125 484.655273438 l 2,64,65
 34.91796875 522.782226562 34.91796875 522.782226562 58.068359375 554.953125 c 128,-1,66
 81.2177734375 587.123046875 81.2177734375 587.123046875 110.411132812 605.99609375 c 128,-1,67
 139.604492188 624.868164062 139.604492188 624.868164062 167.961914062 635.223632812 c 128,-1,68
 196.319335938 645.579101562 196.319335938 645.579101562 217.495117188 645.579101562 c 2,69,-1
 378.418945312 645.579101562 l 2,32,33
EndSplineSet
EndChar

StartChar: 9
Encoding: 57 57 12
Width: 545
VWidth: 1000
Flags: W
LayerCount: 2
Fore
SplineSet
321.66796875 323.71484375 m 2,0,1
 361.389648438 323.71484375 361.389648438 323.71484375 401.526367188 357.834960938 c 128,-1,2
 441.662109375 391.954101562 441.662109375 391.954101562 448.666015625 431.67578125 c 2,3,-1
 458.004882812 484.637695312 l 2,4,5
 465.008789062 524.359375 465.008789062 524.359375 436.905273438 558.479492188 c 128,-1,6
 408.802734375 592.599609375 408.802734375 592.599609375 369.080078125 592.599609375 c 2,7,-1
 208.15625 592.599609375 l 2,8,9
 168.434570312 592.599609375 168.434570312 592.599609375 128.298828125 558.479492188 c 128,-1,10
 88.162109375 524.359375 88.162109375 524.359375 81.158203125 484.637695312 c 2,11,-1
 71.8193359375 431.67578125 l 2,12,13
 64.8154296875 391.954101562 64.8154296875 391.954101562 92.919921875 357.834960938 c 128,-1,14
 121.022460938 323.71484375 121.022460938 323.71484375 160.744140625 323.71484375 c 2,15,-1
 321.66796875 323.71484375 l 2,0,1
151.405273438 270.751953125 m 2,16,17
 130.229492188 270.751953125 130.229492188 270.751953125 105.524414062 281.107421875 c 128,-1,18
 80.8193359375 291.462890625 80.8193359375 291.462890625 58.28125 310.334960938 c 128,-1,19
 35.744140625 329.208007812 35.744140625 329.208007812 23.939453125 361.37890625 c 128,-1,20
 12.1337890625 393.548828125 12.1337890625 393.548828125 18.8564453125 431.67578125 c 2,21,-1
 28.1953125 484.637695312 l 2,22,23
 34.91796875 522.764648438 34.91796875 522.764648438 58.068359375 554.935546875 c 128,-1,24
 81.21875 587.106445312 81.21875 587.106445312 110.411132812 605.978515625 c 128,-1,25
 139.604492188 624.850585938 139.604492188 624.850585938 167.961914062 635.206054688 c 128,-1,26
 196.318359375 645.561523438 196.318359375 645.561523438 217.494140625 645.561523438 c 2,27,-1
 378.41796875 645.561523438 l 2,28,29
 399.59375 645.561523438 399.59375 645.561523438 424.299804688 635.206054688 c 128,-1,30
 449.004882812 624.850585938 449.004882812 624.850585938 471.541992188 605.978515625 c 128,-1,31
 494.081054688 587.10546875 494.081054688 587.10546875 505.884765625 554.935546875 c 128,-1,32
 517.689453125 522.764648438 517.689453125 522.764648438 510.966796875 484.637695312 c 2,33,-1
 463.915039062 217.790039062 l 2,34,35
 453.705078125 159.88671875 453.705078125 159.88671875 427.981445312 116.887695312 c 128,-1,36
 402.258789062 73.888671875 402.258789062 73.888671875 366.741210938 50.09375 c 128,-1,37
 331.224609375 26.2978515625 331.224609375 26.2978515625 292.778320312 15.1015625 c 128,-1,38
 254.333984375 3.904296875 254.333984375 3.904296875 212.315429688 3.904296875 c 2,39,-1
 -56.5703125 3.904296875 l 1,40,-1
 -47.232421875 56.8662109375 l 1,41,-1
 221.653320312 56.8662109375 l 2,42,43
 301.096679688 56.8662109375 301.096679688 56.8662109375 349.020507812 97.6064453125 c 128,-1,44
 396.944335938 138.346679688 396.944335938 138.346679688 410.953125 217.790039062 c 2,45,-1
 420.291015625 270.751953125 l 1,46,-1
 151.405273438 270.751953125 l 2,16,17
EndSplineSet
EndChar

StartChar: :
Encoding: 58 58 13
Width: 167
VWidth: 1000
Flags: W
LayerCount: 2
Fore
SplineSet
17.08203125 3.607421875 m 0,0,1
 -5.4072265625 3.607421875 -5.4072265625 3.607421875 -18.6015625 19.1318359375 c 128,-1,2
 -31.796875 34.65625 -31.796875 34.65625 -28.04296875 55.94921875 c 0,3,4
 -24.048828125 78.59765625 -24.048828125 78.59765625 -5.400390625 94.4501953125 c 128,-1,5
 13.248046875 110.303710938 13.248046875 110.303710938 35.8955078125 110.303710938 c 0,6,7
 57.1884765625 110.303710938 57.1884765625 110.303710938 69.904296875 94.37109375 c 128,-1,8
 82.619140625 78.4384765625 82.619140625 78.4384765625 78.6533203125 55.94921875 c 0,9,10
 74.9267578125 34.8115234375 74.9267578125 34.8115234375 56.5732421875 19.208984375 c 128,-1,11
 38.220703125 3.607421875 38.220703125 3.607421875 17.08203125 3.607421875 c 0,0,1
72.8134765625 319.670898438 m 0,12,13
 50.32421875 319.670898438 50.32421875 319.670898438 37.12890625 335.1953125 c 128,-1,14
 23.93359375 350.719726562 23.93359375 350.719726562 27.6875 372.012695312 c 0,15,16
 31.681640625 394.66015625 31.681640625 394.66015625 50.330078125 410.513671875 c 128,-1,17
 68.9794921875 426.3671875 68.9794921875 426.3671875 91.626953125 426.3671875 c 0,18,19
 112.919921875 426.3671875 112.919921875 426.3671875 125.634765625 410.434570312 c 128,-1,20
 138.349609375 394.500976562 138.349609375 394.500976562 134.383789062 372.012695312 c 0,21,22
 130.657226562 350.874023438 130.657226562 350.874023438 112.3046875 335.272460938 c 128,-1,23
 93.9521484375 319.670898438 93.9521484375 319.670898438 72.8134765625 319.670898438 c 0,12,13
EndSplineSet
EndChar

StartChar: ;
Encoding: 59 59 14
Width: 167
VWidth: 1000
Flags: W
LayerCount: 2
Fore
SplineSet
81.9794921875 56.310546875 m 0,0,1
 70.03515625 -11.4326171875 70.03515625 -11.4326171875 52.74609375 -44.4951171875 c 128,-1,2
 35.45703125 -77.5576171875 35.45703125 -77.5576171875 6.708984375 -89.9736328125 c 128,-1,3
 -22.037109375 -102.389648438 -22.037109375 -102.389648438 -76.5791015625 -102.389648438 c 1,4,5
 -72.7060546875 -80.4228515625 -72.7060546875 -80.4228515625 -62.9912109375 -71.091796875 c 128,-1,6
 -53.2763671875 -61.7607421875 -53.2763671875 -61.7607421875 -41.5283203125 -60.4521484375 c 128,-1,7
 -29.78125 -59.1435546875 -29.78125 -59.1435546875 -17.8271484375 -56.66015625 c 128,-1,8
 -5.8720703125 -54.1767578125 -5.8720703125 -54.1767578125 4.7412109375 -39.7529296875 c 128,-1,9
 15.353515625 -25.330078125 15.353515625 -25.330078125 20.5400390625 4.080078125 c 1,10,11
 -2.060546875 4.080078125 -2.060546875 4.080078125 -14.2626953125 18.8955078125 c 128,-1,12
 -26.4658203125 33.7109375 -26.4658203125 33.7109375 -22.4814453125 56.310546875 c 0,13,14
 -18.69921875 77.7568359375 -18.69921875 77.7568359375 -0.998046875 93.1484375 c 128,-1,15
 16.7021484375 108.541015625 16.7021484375 108.541015625 38.958984375 108.541015625 c 0,16,17
 60.0517578125 108.541015625 60.0517578125 108.541015625 72.8759765625 92.97265625 c 128,-1,18
 85.69921875 77.4033203125 85.69921875 77.4033203125 81.9794921875 56.310546875 c 0,0,1
76.1513671875 319.471679688 m 0,19,20
 53.89453125 319.471679688 53.89453125 319.471679688 41.623046875 334.864257812 c 128,-1,21
 29.349609375 350.255859375 29.349609375 350.255859375 33.130859375 371.702148438 c 0,22,23
 37.1513671875 394.505859375 37.1513671875 394.505859375 54.8349609375 410.223632812 c 128,-1,24
 72.517578125 425.94140625 72.517578125 425.94140625 94.9248046875 425.94140625 c 0,25,26
 116.171875 425.94140625 116.171875 425.94140625 128.861328125 410.041992188 c 128,-1,27
 141.548828125 394.143554688 141.548828125 394.143554688 137.591796875 371.702148438 c 0,28,29
 133.873046875 350.609375 133.873046875 350.609375 115.55859375 335.040039062 c 128,-1,30
 97.244140625 319.471679688 97.244140625 319.471679688 76.1513671875 319.471679688 c 0,19,20
EndSplineSet
EndChar

StartChar: =
Encoding: 61 61 15
Width: 435
VWidth: 1000
Flags: W
LayerCount: 2
Fore
SplineSet
29.4365234375 164.536132812 m 2,0,1
 15.431640625 164.536132812 15.431640625 164.536132812 8.6640625 165.020507812 c 128,-1,2
 1.8955078125 165.504882812 1.8955078125 165.504882812 -6.6162109375 167.775390625 c 128,-1,3
 -15.1279296875 170.046875 -15.1279296875 170.046875 -17.8310546875 175.778320312 c 128,-1,4
 -20.533203125 181.510742188 -20.533203125 181.510742188 -18.8564453125 191.017578125 c 128,-1,5
 -17.1806640625 200.524414062 -17.1806640625 200.524414062 -12.45703125 206.255859375 c 128,-1,6
 -7.732421875 211.987304688 -7.732421875 211.987304688 1.580078125 214.258789062 c 128,-1,7
 10.892578125 216.529296875 10.892578125 216.529296875 17.8310546875 217.013671875 c 128,-1,8
 24.7705078125 217.498046875 24.7705078125 217.498046875 38.775390625 217.498046875 c 2,9,-1
 307.66015625 217.498046875 l 2,10,11
 321.665039062 217.498046875 321.665039062 217.498046875 328.432617188 217.013671875 c 128,-1,12
 335.201171875 216.529296875 335.201171875 216.529296875 343.712890625 214.258789062 c 128,-1,13
 352.223632812 211.987304688 352.223632812 211.987304688 354.926757812 206.255859375 c 128,-1,14
 357.62890625 200.524414062 357.62890625 200.524414062 355.953125 191.017578125 c 128,-1,15
 354.276367188 181.510742188 354.276367188 181.510742188 349.552734375 175.778320312 c 128,-1,16
 344.828125 170.046875 344.828125 170.046875 335.516601562 167.775390625 c 128,-1,17
 326.204101562 165.504882812 326.204101562 165.504882812 319.265625 165.020507812 c 128,-1,18
 312.326171875 164.536132812 312.326171875 164.536132812 298.321289062 164.536132812 c 2,19,-1
 29.4365234375 164.536132812 l 2,0,1
67.150390625 378.421875 m 2,20,21
 53.1455078125 378.421875 53.1455078125 378.421875 46.376953125 378.90625 c 128,-1,22
 39.609375 379.390625 39.609375 379.390625 31.09765625 381.661132812 c 128,-1,23
 22.5859375 383.932617188 22.5859375 383.932617188 19.8828125 389.6640625 c 128,-1,24
 17.1806640625 395.396484375 17.1806640625 395.396484375 18.8564453125 404.903320312 c 128,-1,25
 20.533203125 414.41015625 20.533203125 414.41015625 25.2568359375 420.142578125 c 128,-1,26
 29.9814453125 425.874023438 29.9814453125 425.874023438 39.2939453125 428.145507812 c 128,-1,27
 48.6064453125 430.416015625 48.6064453125 430.416015625 55.544921875 430.900390625 c 128,-1,28
 62.484375 431.384765625 62.484375 431.384765625 76.4892578125 431.384765625 c 2,29,-1
 345.374023438 431.384765625 l 2,30,31
 359.37890625 431.384765625 359.37890625 431.384765625 366.146484375 430.900390625 c 128,-1,32
 372.915039062 430.416015625 372.915039062 430.416015625 381.426757812 428.145507812 c 128,-1,33
 389.9375 425.874023438 389.9375 425.874023438 392.640625 420.142578125 c 128,-1,34
 395.342773438 414.41015625 395.342773438 414.41015625 393.666015625 404.903320312 c 128,-1,35
 391.990234375 395.396484375 391.990234375 395.396484375 387.266601562 389.6640625 c 128,-1,36
 382.541992188 383.932617188 382.541992188 383.932617188 373.23046875 381.661132812 c 128,-1,37
 363.91796875 379.390625 363.91796875 379.390625 356.978515625 378.90625 c 128,-1,38
 350.040039062 378.421875 350.040039062 378.421875 336.03515625 378.421875 c 2,39,-1
 67.150390625 378.421875 l 2,20,21
EndSplineSet
EndChar

StartChar: A
Encoding: 65 65 16
Width: 543
VWidth: 1000
Flags: W
LayerCount: 2
Fore
SplineSet
108.627929688 270.48046875 m 1,0,-1
 10.3994140625 83.0751953125 l 1,1,-1
 -3.609375 3.6318359375 l 1,2,-1
 -56.5712890625 3.6318359375 l 1,3,-1
 -47.232421875 56.59375 l 1,4,-1
 258.235351562 645.290039062 l 1,5,-1
 337.678710938 645.290039062 l 1,6,-1
 435.5390625 56.59375 l 1,7,-1
 426.200195312 3.6318359375 l 1,8,-1
 373.237304688 3.6318359375 l 1,9,-1
 387.24609375 83.0751953125 l 1,10,-1
 355.106445312 270.48046875 l 1,11,-1
 108.627929688 270.48046875 l 1,0,-1
136.659179688 325.479492188 m 1,12,-1
 346.470703125 325.479492188 l 1,13,-1
 301.858398438 592.327148438 l 1,14,-1
 275.376953125 592.327148438 l 1,15,-1
 136.659179688 325.479492188 l 1,12,-1
EndSplineSet
EndChar

StartChar: B
Encoding: 66 66 17
Width: 543
VWidth: 1000
Flags: W
LayerCount: 2
Fore
SplineSet
273.734375 351.4921875 m 2,0,1
 356.131835938 351.4921875 356.131835938 351.4921875 399.640625 375.569335938 c 128,-1,2
 443.149414062 399.645507812 443.149414062 399.645507812 453.3359375 457.416992188 c 0,3,4
 464.138671875 518.685546875 464.138671875 518.685546875 428.889648438 555.272460938 c 128,-1,5
 393.639648438 591.859375 393.639648438 591.859375 316.118164062 591.859375 c 2,6,-1
 100.1953125 591.859375 l 1,7,-1
 57.8115234375 351.4921875 l 1,8,-1
 273.734375 351.4921875 l 2,0,1
48.1142578125 296.493164062 m 1,9,-1
 5.73046875 56.1259765625 l 1,10,-1
 274.615234375 56.1259765625 l 2,11,12
 305.493164062 56.1259765625 305.493164062 56.1259765625 328.8671875 65.7734375 c 128,-1,13
 352.240234375 75.4208984375 352.240234375 75.4208984375 364.916015625 87.447265625 c 128,-1,14
 377.58984375 99.4736328125 377.58984375 99.4736328125 386.9921875 121.114257812 c 128,-1,15
 396.39453125 142.755859375 396.39453125 142.755859375 399.37109375 155.499023438 c 128,-1,16
 402.346679688 168.243164062 402.346679688 168.243164062 406.283203125 190.568359375 c 0,17,18
 413.2578125 230.125 413.2578125 230.125 385.07421875 263.309570312 c 128,-1,19
 356.890625 296.493164062 356.890625 296.493164062 316.999023438 296.493164062 c 2,20,-1
 48.1142578125 296.493164062 l 1,9,-1
325.45703125 644.822265625 m 2,21,22
 380.557617188 644.822265625 380.557617188 644.822265625 424.9921875 627.702148438 c 128,-1,23
 469.428710938 610.58203125 469.428710938 610.58203125 494.73828125 572.9921875 c 128,-1,24
 520.048828125 535.403320312 520.048828125 535.403320312 510.966796875 483.8984375 c 0,25,26
 504.100585938 444.955078125 504.100585938 444.955078125 495.69921875 420.299804688 c 128,-1,27
 487.297851562 395.645507812 487.297851562 395.645507812 471.1875 377.724609375 c 128,-1,28
 455.076171875 359.803710938 455.076171875 359.803710938 442.9609375 351.168945312 c 128,-1,29
 430.845703125 342.534179688 430.845703125 342.534179688 401.470703125 325.01171875 c 1,30,31
 420.767578125 309.508789062 420.767578125 309.508789062 427.890625 303.087890625 c 128,-1,32
 435.014648438 296.66796875 435.014648438 296.66796875 445.749023438 282.646484375 c 128,-1,33
 456.483398438 268.624023438 456.483398438 268.624023438 458.431640625 254.8515625 c 128,-1,34
 460.37890625 241.079101562 460.37890625 241.079101562 460.244140625 218.276367188 c 128,-1,35
 460.110351562 195.473632812 460.110351562 195.473632812 454.576171875 164.087890625 c 0,36,37
 439.834960938 80.48828125 439.834960938 80.48828125 384.782226562 41.826171875 c 128,-1,38
 329.728515625 3.1640625 329.728515625 3.1640625 212.314453125 3.1640625 c 2,39,-1
 -56.5712890625 3.1640625 l 1,40,-1
 56.5712890625 644.822265625 l 1,41,-1
 325.45703125 644.822265625 l 2,21,22
EndSplineSet
EndChar

StartChar: C
Encoding: 67 67 18
Width: 543
VWidth: 1000
Flags: W
LayerCount: 2
Fore
SplineSet
-18.8564453125 217.66015625 m 2,0,-1
 18.857421875 431.545898438 l 2,1,2
 26.265625 473.564453125 26.265625 473.564453125 43.8935546875 510.03515625 c 128,-1,3
 61.5224609375 546.506835938 61.5224609375 546.506835938 90.83984375 577.828125 c 128,-1,4
 120.158203125 609.149414062 120.158203125 609.149414062 166.356445312 627.290039062 c 128,-1,5
 212.5546875 645.431640625 212.5546875 645.431640625 270.458007812 645.431640625 c 2,6,-1
 431.381835938 645.431640625 l 2,7,8
 471.103515625 645.431640625 471.103515625 645.431640625 483.430664062 638.811523438 c 128,-1,9
 495.758789062 632.19140625 495.758789062 632.19140625 530.00390625 592.469726562 c 1,10,-1
 261.119140625 592.469726562 l 2,11,12
 181.67578125 592.469726562 181.67578125 592.469726562 133.751953125 551.729492188 c 128,-1,13
 85.828125 510.989257812 85.828125 510.989257812 71.8203125 431.545898438 c 2,14,-1
 34.1064453125 217.66015625 l 2,15,16
 20.09765625 138.216796875 20.09765625 138.216796875 53.654296875 97.4765625 c 128,-1,17
 87.2109375 56.736328125 87.2109375 56.736328125 166.654296875 56.736328125 c 2,18,-1
 435.5390625 56.736328125 l 1,19,20
 387.286132812 17.0146484375 387.286132812 17.0146484375 372.624023438 10.3935546875 c 128,-1,21
 357.9609375 3.7734375 357.9609375 3.7734375 318.239257812 3.7734375 c 2,22,-1
 157.315429688 3.7734375 l 2,23,24
 99.412109375 3.7734375 99.412109375 3.7734375 59.6123046875 21.9150390625 c 128,-1,25
 19.8125 40.056640625 19.8125 40.056640625 1.5390625 71.3779296875 c 128,-1,26
 -16.7333984375 102.69921875 -16.7333984375 102.69921875 -21.4990234375 139.170898438 c 128,-1,27
 -26.265625 175.641601562 -26.265625 175.641601562 -18.8564453125 217.66015625 c 2,0,-1
EndSplineSet
EndChar

StartChar: D
Encoding: 68 68 19
Width: 543
VWidth: 1000
Flags: W
LayerCount: 2
Fore
SplineSet
56.5712890625 645.549804688 m 1,0,-1
 -56.5712890625 3.8916015625 l 1,1,-1
 212.313476562 3.8916015625 l 2,2,3
 333.006835938 3.8916015625 333.006835938 3.8916015625 387.8203125 50.48828125 c 128,-1,4
 442.6328125 97.0849609375 442.6328125 97.0849609375 463.9140625 217.77734375 c 2,5,-1
 492.290039062 378.701171875 l 2,6,7
 505.787109375 455.247070312 505.787109375 455.247070312 469.66015625 517.51171875 c 128,-1,8
 433.534179688 579.776367188 433.534179688 579.776367188 366.084960938 612.663085938 c 128,-1,9
 298.634765625 645.549804688 298.634765625 645.549804688 217.495117188 645.549804688 c 2,10,-1
 56.5712890625 645.549804688 l 1,0,-1
261.118164062 592.587890625 m 2,11,12
 341.918945312 592.587890625 341.918945312 592.587890625 397.641601562 525.451171875 c 128,-1,13
 453.365234375 458.314453125 453.365234375 458.314453125 439.327148438 378.701171875 c 2,14,-1
 406.282226562 191.296875 l 2,15,16
 395.776367188 131.713867188 395.776367188 131.713867188 351.747070312 94.2841796875 c 128,-1,17
 307.715820312 56.853515625 307.715820312 56.853515625 248.133789062 56.853515625 c 2,18,-1
 5.7294921875 56.853515625 l 1,19,-1
 100.194335938 592.587890625 l 1,20,-1
 261.118164062 592.587890625 l 2,11,12
EndSplineSet
EndChar

StartChar: E
Encoding: 69 69 20
Width: 543
VWidth: 1000
Flags: W
LayerCount: 2
Fore
SplineSet
-56.5712890625 3.962890625 m 1,0,-1
 56.5712890625 645.62109375 l 1,1,-1
 539.342773438 645.62109375 l 1,2,-1
 530.00390625 592.658203125 l 1,3,-1
 100.194335938 592.658203125 l 1,4,-1
 57.810546875 352.291015625 l 1,5,-1
 487.620117188 352.291015625 l 1,6,-1
 477.922851562 297.291992188 l 1,7,-1
 48.11328125 297.291992188 l 1,8,-1
 5.7294921875 56.9248046875 l 1,9,-1
 435.5390625 56.9248046875 l 1,10,-1
 426.200195312 3.962890625 l 1,11,-1
 -56.5712890625 3.962890625 l 1,0,-1
EndSplineSet
EndChar

StartChar: F
Encoding: 70 70 21
Width: 492
VWidth: 1000
Flags: W
LayerCount: 2
Fore
SplineSet
-55.7314453125 3.3046875 m 2,0,-1
 -2.76953125 3.3046875 l 2,1,2
 -1.7509765625 3.3046875 -1.7509765625 3.3046875 -1.572265625 4.3232421875 c 2,3,-1
 49.970703125 296.634765625 l 1,4,-1
 423.762695312 296.634765625 l 2,5,6
 424.78125 296.634765625 424.78125 296.634765625 424.9609375 297.653320312 c 2,7,-1
 434.658203125 352.65234375 l 2,8,9
 434.837890625 353.670898438 434.837890625 353.670898438 433.819335938 353.670898438 c 2,10,-1
 60.02734375 353.670898438 l 1,11,-1
 102.051757812 592.000976562 l 1,12,-1
 475.84375 592.000976562 l 2,13,14
 476.862304688 592.000976562 476.862304688 592.000976562 477.041992188 593.01953125 c 2,15,-1
 486.380859375 645.981445312 l 2,16,17
 486.559570312 647 486.559570312 647 485.541015625 647 c 2,18,-1
 57.7685546875 647 l 2,19,20
 56.75 647 56.75 647 56.5712890625 645.981445312 c 2,21,-1
 -56.5712890625 4.3232421875 l 2,22,23
 -56.75 3.3046875 -56.75 3.3046875 -55.7314453125 3.3046875 c 2,0,-1
-3.4296875 5.341796875 m 1,24,-1
 -54.3544921875 5.341796875 l 1,25,-1
 58.4287109375 644.962890625 l 1,26,-1
 484.1640625 644.962890625 l 1,27,-1
 475.184570312 594.038085938 l 1,28,-1
 101.392578125 594.038085938 l 2,29,30
 100.374023438 594.038085938 100.374023438 594.038085938 100.194335938 593.01953125 c 2,31,-1
 57.810546875 352.65234375 l 2,32,33
 57.630859375 351.633789062 57.630859375 351.633789062 58.6494140625 351.633789062 c 2,34,-1
 432.44140625 351.633789062 l 1,35,-1
 423.103515625 298.671875 l 1,36,-1
 49.3115234375 298.671875 l 2,37,38
 48.29296875 298.671875 48.29296875 298.671875 48.11328125 297.653320312 c 2,39,-1
 -3.4296875 5.341796875 l 1,24,-1
-55.552734375 4.3232421875 m 1,40,-1
 57.58984375 645.981445312 l 1,41,-1
 485.362304688 645.981445312 l 1,42,-1
 476.0234375 593.01953125 l 1,43,-1
 101.212890625 593.01953125 l 1,44,-1
 58.8291015625 352.65234375 l 1,45,-1
 433.639648438 352.65234375 l 1,46,-1
 423.942382812 297.653320312 l 1,47,-1
 49.1318359375 297.653320312 l 1,48,-1
 -2.5908203125 4.3232421875 l 1,49,-1
 -55.552734375 4.3232421875 l 1,40,-1
EndSplineSet
EndChar

StartChar: G
Encoding: 71 71 22
Width: 543
VWidth: 1000
Flags: W
LayerCount: 2
Fore
SplineSet
-18.857421875 217.571289062 m 2,0,-1
 18.857421875 431.458007812 l 2,1,2
 26.265625 473.475585938 26.265625 473.475585938 43.8935546875 509.947265625 c 128,-1,3
 61.5224609375 546.41796875 61.5224609375 546.41796875 90.83984375 577.739257812 c 128,-1,4
 120.158203125 609.060546875 120.158203125 609.060546875 166.356445312 627.202148438 c 128,-1,5
 212.5546875 645.34375 212.5546875 645.34375 270.458007812 645.34375 c 2,6,-1
 539.342773438 645.34375 l 1,7,-1
 530.00390625 592.381835938 l 1,8,-1
 261.119140625 592.381835938 l 2,9,10
 181.67578125 592.381835938 181.67578125 592.381835938 133.751953125 551.641601562 c 128,-1,11
 85.828125 510.901367188 85.828125 510.901367188 71.8203125 431.458007812 c 2,12,-1
 34.10546875 217.571289062 l 2,13,14
 20.09765625 138.127929688 20.09765625 138.127929688 53.654296875 97.3876953125 c 128,-1,15
 87.2109375 56.6474609375 87.2109375 56.6474609375 166.654296875 56.6474609375 c 2,16,-1
 274.615234375 56.6474609375 l 2,17,18
 314.336914062 56.6474609375 314.336914062 56.6474609375 354.473632812 90.767578125 c 128,-1,19
 394.610351562 124.887695312 394.610351562 124.887695312 401.614257812 164.609375 c 2,20,-1
 424.9609375 297.014648438 l 1,21,-1
 264.037109375 297.014648438 l 1,22,-1
 273.734375 352.014648438 l 1,23,-1
 487.620117188 352.014648438 l 1,24,-1
 454.576171875 164.609375 l 2,25,26
 426.200195312 3.685546875 426.200195312 3.685546875 265.276367188 3.685546875 c 2,27,-1
 157.315429688 3.685546875 l 2,28,29
 36.6220703125 3.685546875 36.6220703125 3.685546875 -1.7578125 50.2822265625 c 128,-1,30
 -40.138671875 96.87890625 -40.138671875 96.87890625 -18.857421875 217.571289062 c 2,0,-1
EndSplineSet
EndChar

StartChar: H
Encoding: 72 72 23
Width: 543
VWidth: 1000
Flags: W
LayerCount: 2
Fore
SplineSet
-56.5712890625 3.2763671875 m 1,0,-1
 56.5712890625 644.934570312 l 1,1,-1
 109.534179688 644.934570312 l 1,2,-1
 62.4814453125 378.0859375 l 1,3,-1
 439.328125 378.0859375 l 1,4,-1
 486.380859375 644.934570312 l 1,5,-1
 539.342773438 644.934570312 l 1,6,-1
 426.200195312 3.2763671875 l 1,7,-1
 373.23828125 3.2763671875 l 1,8,-1
 429.989257812 325.124023438 l 1,9,-1
 53.142578125 325.124023438 l 1,10,-1
 -3.6083984375 3.2763671875 l 1,11,-1
 -56.5712890625 3.2763671875 l 1,0,-1
EndSplineSet
EndChar

StartChar: I
Encoding: 73 73 24
Width: 113
VWidth: 1000
Flags: W
LayerCount: 2
Fore
SplineSet
-3.6083984375 3.0341796875 m 1,0,-1
 -56.5703125 3.0341796875 l 1,1,-1
 56.5703125 644.69140625 l 1,2,-1
 109.532226562 644.69140625 l 1,3,-1
 -3.6083984375 3.0341796875 l 1,0,-1
EndSplineSet
EndChar

StartChar: J
Encoding: 74 74 25
Width: 435
Flags: W
LayerCount: 2
Fore
SplineSet
-56.5712890625 7.341796875 m 1,0,-1
 -47.232421875 60.3046875 l 1,1,-1
 60.7294921875 60.3046875 l 2,2,3
 140.172851562 60.3046875 140.172851562 60.3046875 219.247070312 127.525390625 c 128,-1,4
 298.321289062 194.747070312 298.321289062 194.747070312 312.329101562 274.190429688 c 2,5,-1
 369.080078125 596.038085938 l 1,6,-1
 261.118164062 596.038085938 l 1,7,-1
 270.45703125 649 l 1,8,-1
 431.380859375 649 l 1,9,-1
 365.291015625 274.190429688 l 2,10,11
 355.283203125 217.43359375 355.283203125 217.43359375 319.5078125 165.935546875 c 128,-1,12
 283.733398438 114.438476562 283.733398438 114.438476562 237.369140625 80.712890625 c 128,-1,13
 191.005859375 46.9873046875 191.005859375 46.9873046875 141.373046875 27.1640625 c 128,-1,14
 91.7392578125 7.341796875 91.7392578125 7.341796875 51.390625 7.341796875 c 2,15,-1
 -56.5712890625 7.341796875 l 1,0,-1
EndSplineSet
EndChar

StartChar: K
Encoding: 75 75 26
Width: 435
VWidth: 1000
Flags: W
LayerCount: 2
Fore
SplineSet
-56.5712890625 3.53125 m 1,0,-1
 56.5712890625 645.189453125 l 1,1,-1
 109.534179688 645.189453125 l 1,2,-1
 52.783203125 323.341796875 l 1,3,-1
 431.381835938 645.189453125 l 1,4,-1
 421.68359375 590.190429688 l 1,5,-1
 107.782226562 323.341796875 l 1,6,-1
 160.744140625 323.341796875 l 2,7,8
 215.743164062 323.341796875 215.743164062 323.341796875 260.267578125 306.290039062 c 128,-1,9
 304.791015625 289.237304688 304.791015625 289.237304688 330.16015625 252.124023438 c 128,-1,10
 355.529296875 215.009765625 355.529296875 215.009765625 346.615234375 164.455078125 c 2,11,-1
 318.239257812 3.53125 l 1,12,-1
 265.276367188 3.53125 l 1,13,-1
 293.65234375 164.455078125 l 2,14,15
 300.626953125 204.010742188 300.626953125 204.010742188 272.443359375 237.1953125 c 128,-1,16
 244.258789062 270.379882812 244.258789062 270.379882812 204.368164062 270.379882812 c 2,17,-1
 43.4443359375 270.379882812 l 1,18,-1
 -3.6083984375 3.53125 l 1,19,-1
 -56.5712890625 3.53125 l 1,0,-1
EndSplineSet
EndChar

StartChar: L
Encoding: 76 76 27
Width: 435
VWidth: 1000
Flags: W
LayerCount: 2
Fore
SplineSet
-56.5703125 3.8037109375 m 1,0,-1
 56.5703125 645.4609375 l 1,1,-1
 109.532226562 645.4609375 l 1,2,-1
 5.7294921875 56.765625 l 1,3,-1
 327.577148438 56.765625 l 1,4,-1
 318.239257812 3.8037109375 l 1,5,-1
 -56.5703125 3.8037109375 l 1,0,-1
EndSplineSet
EndChar

StartChar: M
Encoding: 77 77 28
Width: 543
VWidth: 1000
Flags: W
LayerCount: 2
Fore
SplineSet
-3.609375 3.703125 m 1,0,-1
 -56.5712890625 3.703125 l 1,1,-1
 56.5712890625 645.361328125 l 1,2,-1
 83.052734375 645.361328125 l 1,3,-1
 221.509765625 217.588867188 l 1,4,-1
 512.861328125 645.361328125 l 1,5,-1
 539.342773438 645.361328125 l 1,6,-1
 426.200195312 3.703125 l 1,7,-1
 373.237304688 3.703125 l 1,8,-1
 458.00390625 484.4375 l 1,9,-1
 204.870117188 111.6640625 l 1,10,-1
 81.1572265625 484.4375 l 1,11,-1
 -3.609375 3.703125 l 1,0,-1
EndSplineSet
EndChar

StartChar: N
Encoding: 78 78 29
Width: 543
VWidth: 1000
Flags: W
LayerCount: 2
Fore
SplineSet
100.194335938 592.327148438 m 1,0,-1
 -3.609375 3.6318359375 l 1,1,-1
 -56.5712890625 3.6318359375 l 1,2,-1
 56.5712890625 645.290039062 l 1,3,-1
 270.45703125 645.290039062 l 2,4,5
 327.93359375 645.290039062 327.93359375 645.290039062 375.17578125 618.6015625 c 128,-1,6
 422.41796875 591.9140625 422.41796875 591.9140625 449.182617188 551.4765625 c 128,-1,7
 475.946289062 511.0390625 475.946289062 511.0390625 487.678710938 464.934570312 c 128,-1,8
 499.411132812 418.830078125 499.411132812 418.830078125 492.290039062 378.44140625 c 2,9,-1
 426.200195312 3.6318359375 l 1,10,-1
 373.237304688 3.6318359375 l 1,11,-1
 439.327148438 378.44140625 l 2,12,13
 453.365234375 458.0546875 453.365234375 458.0546875 397.641601562 525.19140625 c 128,-1,14
 341.918945312 592.327148438 341.918945312 592.327148438 261.118164062 592.327148438 c 2,15,-1
 100.194335938 592.327148438 l 1,0,-1
EndSplineSet
EndChar

StartChar: O
Encoding: 79 79 30
Width: 543
VWidth: 1000
Flags: W
LayerCount: 2
Fore
SplineSet
501.62890625 431.5390625 m 2,0,1
 511.838867188 489.442382812 511.838867188 489.442382812 501.278320312 532.44140625 c 128,-1,2
 490.719726562 575.440429688 490.719726562 575.440429688 463.594726562 599.235351562 c 128,-1,3
 436.46875 623.03125 436.46875 623.03125 401.971679688 634.227539062 c 128,-1,4
 367.475585938 645.424804688 367.475585938 645.424804688 325.45703125 645.424804688 c 2,5,-1
 270.458007812 645.424804688 l 2,6,7
 228.439453125 645.424804688 228.439453125 645.424804688 189.994140625 634.227539062 c 128,-1,8
 151.547851562 623.03125 151.547851562 623.03125 116.03125 599.235351562 c 128,-1,9
 80.513671875 575.440429688 80.513671875 575.440429688 54.7900390625 532.44140625 c 128,-1,10
 29.0673828125 489.442382812 29.0673828125 489.442382812 18.857421875 431.5390625 c 2,11,-1
 -18.857421875 217.65234375 l 2,12,13
 -29.06640625 159.75 -29.06640625 159.75 -18.5068359375 116.750976562 c 128,-1,14
 -7.947265625 73.751953125 -7.947265625 73.751953125 19.177734375 49.9560546875 c 128,-1,15
 46.3037109375 26.1611328125 46.3037109375 26.1611328125 80.80078125 14.9638671875 c 128,-1,16
 115.296875 3.7666015625 115.296875 3.7666015625 157.315429688 3.7666015625 c 2,17,-1
 212.314453125 3.7666015625 l 2,18,19
 254.333007812 3.7666015625 254.333007812 3.7666015625 292.778320312 14.9638671875 c 128,-1,20
 331.224609375 26.1611328125 331.224609375 26.1611328125 366.741210938 49.9560546875 c 128,-1,21
 402.258789062 73.751953125 402.258789062 73.751953125 427.981445312 116.750976562 c 128,-1,22
 453.705078125 159.75 453.705078125 159.75 463.9140625 217.65234375 c 2,23,-1
 501.62890625 431.5390625 l 2,0,1
410.952148438 217.65234375 m 2,24,25
 396.944335938 138.208984375 396.944335938 138.208984375 349.020507812 97.4697265625 c 128,-1,26
 301.096679688 56.7294921875 301.096679688 56.7294921875 221.653320312 56.7294921875 c 2,27,-1
 166.654296875 56.7294921875 l 2,28,29
 87.2109375 56.7294921875 87.2109375 56.7294921875 53.654296875 97.4697265625 c 128,-1,30
 20.09765625 138.208984375 20.09765625 138.208984375 34.10546875 217.65234375 c 2,31,-1
 71.8203125 431.5390625 l 2,32,33
 85.828125 510.982421875 85.828125 510.982421875 133.751953125 551.72265625 c 128,-1,34
 181.67578125 592.462890625 181.67578125 592.462890625 261.119140625 592.462890625 c 2,35,-1
 316.118164062 592.462890625 l 2,36,37
 395.561523438 592.462890625 395.561523438 592.462890625 429.118164062 551.72265625 c 128,-1,38
 462.674804688 510.982421875 462.674804688 510.982421875 448.666992188 431.5390625 c 2,39,-1
 410.952148438 217.65234375 l 2,24,25
EndSplineSet
EndChar

StartChar: P
Encoding: 80 80 31
Width: 543
VWidth: 1000
Flags: W
LayerCount: 2
Fore
SplineSet
56.5712890625 645.567382812 m 1,0,-1
 -56.5712890625 3.9091796875 l 1,1,-1
 -3.6083984375 3.9091796875 l 1,2,-1
 43.4443359375 270.756835938 l 1,3,-1
 285.848632812 270.756835938 l 2,4,5
 366.145507812 270.756835938 366.145507812 270.756835938 426.352539062 308.48828125 c 128,-1,6
 486.559570312 346.219726562 486.559570312 346.219726562 496.958984375 405.200195312 c 2,7,-1
 506.297851562 458.162109375 l 2,8,9
 539.342773438 645.567382812 539.342773438 645.567382812 325.45703125 645.567382812 c 2,10,-1
 56.5712890625 645.567382812 l 1,0,-1
342.599609375 592.604492188 m 2,11,12
 399.948242188 592.604492188 399.948242188 592.604492188 432.647460938 559.4453125 c 128,-1,13
 465.34765625 526.287109375 465.34765625 526.287109375 458.004882812 484.643554688 c 2,14,-1
 448.666015625 431.680664062 l 2,15,16
 438.520507812 374.139648438 438.520507812 374.139648438 394.431640625 349.948242188 c 128,-1,17
 350.342773438 325.756835938 350.342773438 325.756835938 269.065429688 325.756835938 c 2,18,-1
 53.142578125 325.756835938 l 1,19,-1
 100.1953125 592.604492188 l 1,20,-1
 342.599609375 592.604492188 l 2,11,12
EndSplineSet
EndChar

StartChar: Q
Encoding: 81 81 32
Width: 543
VWidth: 1000
Flags: W
LayerCount: 2
Fore
SplineSet
501.62890625 431.095703125 m 2,0,-1
 463.915039062 217.209960938 l 2,1,2
 453.745117188 159.536132812 453.745117188 159.536132812 428.166992188 116.73828125 c 128,-1,3
 402.587890625 73.94140625 402.587890625 73.94140625 367.250976562 50.2685546875 c 128,-1,4
 331.915039062 26.595703125 331.915039062 26.595703125 293.654296875 15.46875 c 128,-1,5
 255.39453125 4.341796875 255.39453125 4.341796875 213.51171875 4.341796875 c 2,6,-1
 158.512695312 4.341796875 l 2,7,8
 116.630859375 4.341796875 116.630859375 4.341796875 82.2939453125 15.46875 c 128,-1,9
 47.958984375 26.595703125 47.958984375 26.595703125 20.970703125 50.2685546875 c 128,-1,10
 -6.017578125 73.94140625 -6.017578125 73.94140625 -16.5029296875 116.73828125 c 128,-1,11
 -26.9892578125 159.536132812 -26.9892578125 159.536132812 -16.8193359375 217.209960938 c 2,12,-1
 20.89453125 431.095703125 l 2,13,14
 31.0634765625 488.76953125 31.0634765625 488.76953125 56.642578125 531.567382812 c 128,-1,15
 82.220703125 574.364257812 82.220703125 574.364257812 117.556640625 598.037109375 c 128,-1,16
 152.893554688 621.709960938 152.893554688 621.709960938 191.153320312 632.8359375 c 128,-1,17
 229.4140625 643.962890625 229.4140625 643.962890625 271.295898438 643.962890625 c 2,18,-1
 326.294921875 643.962890625 l 2,19,20
 368.177734375 643.962890625 368.177734375 643.962890625 402.513671875 632.8359375 c 128,-1,21
 436.849609375 621.709960938 436.849609375 621.709960938 463.836914062 598.037109375 c 128,-1,22
 490.826171875 574.364257812 490.826171875 574.364257812 501.3125 531.567382812 c 128,-1,23
 511.797851562 488.76953125 511.797851562 488.76953125 501.62890625 431.095703125 c 2,0,-1
503.666015625 431.095703125 m 2,24,25
 513.916015625 489.227539062 513.916015625 489.227539062 503.283203125 532.428710938 c 128,-1,26
 492.649414062 575.629882812 492.649414062 575.629882812 465.38671875 599.547851562 c 128,-1,27
 438.123046875 623.465820312 438.123046875 623.465820312 403.465820312 634.732421875 c 128,-1,28
 368.807617188 646 368.807617188 646 326.653320312 646 c 2,29,-1
 271.654296875 646 l 2,30,31
 229.500976562 646 229.500976562 646 190.870117188 634.732421875 c 128,-1,32
 152.239257812 623.465820312 152.239257812 623.465820312 116.541015625 599.547851562 c 128,-1,33
 80.8427734375 575.629882812 80.8427734375 575.629882812 54.974609375 532.428710938 c 128,-1,34
 29.107421875 489.227539062 29.107421875 489.227539062 18.857421875 431.095703125 c 2,35,-1
 -18.8564453125 217.209960938 l 2,36,37
 -29.107421875 159.078125 -29.107421875 159.078125 -18.474609375 115.876953125 c 128,-1,38
 -7.8408203125 72.67578125 -7.8408203125 72.67578125 19.421875 48.7578125 c 128,-1,39
 46.6845703125 24.83984375 46.6845703125 24.83984375 81.3427734375 13.572265625 c 128,-1,40
 116.000976562 2.3046875 116.000976562 2.3046875 158.154296875 2.3046875 c 2,41,-1
 213.153320312 2.3046875 l 2,42,43
 255.307617188 2.3046875 255.307617188 2.3046875 293.938476562 13.572265625 c 128,-1,44
 332.568359375 24.83984375 332.568359375 24.83984375 368.267578125 48.7578125 c 128,-1,45
 403.965820312 72.67578125 403.965820312 72.67578125 429.833984375 115.876953125 c 128,-1,46
 455.701171875 159.078125 455.701171875 159.078125 465.952148438 217.209960938 c 2,47,-1
 503.666015625 431.095703125 l 2,24,25
222.491210938 55.267578125 m 0,48,49
 302.298828125 55.267578125 302.298828125 55.267578125 350.608398438 96.3349609375 c 128,-1,50
 398.916992188 137.40234375 398.916992188 137.40234375 412.989257812 217.209960938 c 2,51,-1
 450.703125 431.095703125 l 2,52,53
 464.774414062 510.90234375 464.774414062 510.90234375 430.94921875 551.970703125 c 128,-1,54
 397.123046875 593.038085938 397.123046875 593.038085938 317.315429688 593.038085938 c 2,55,-1
 262.31640625 593.038085938 l 2,56,57
 182.509765625 593.038085938 182.509765625 593.038085938 134.200195312 551.970703125 c 128,-1,58
 85.890625 510.90234375 85.890625 510.90234375 71.8193359375 431.095703125 c 2,59,-1
 34.10546875 217.209960938 l 2,60,61
 20.033203125 137.40234375 20.033203125 137.40234375 53.859375 96.3349609375 c 128,-1,62
 87.685546875 55.267578125 87.685546875 55.267578125 167.4921875 55.267578125 c 0,63,64
 168.510742188 55.267578125 168.510742188 55.267578125 168.690429688 56.2861328125 c 2,65,-1
 187.547851562 163.228515625 l 1,66,-1
 240.509765625 163.228515625 l 1,67,-1
 221.65234375 56.2861328125 l 2,68,69
 221.47265625 55.267578125 221.47265625 55.267578125 222.491210938 55.267578125 c 0,48,49
73.8564453125 431.095703125 m 2,70,71
 87.7998046875 510.174804688 87.7998046875 510.174804688 135.338867188 550.587890625 c 128,-1,72
 182.877929688 591.000976562 182.877929688 591.000976562 261.95703125 591.000976562 c 2,73,-1
 316.956054688 591.000976562 l 2,74,75
 396.03515625 591.000976562 396.03515625 591.000976562 429.322265625 550.587890625 c 128,-1,76
 462.609375 510.174804688 462.609375 510.174804688 448.666015625 431.095703125 c 2,77,-1
 410.952148438 217.209960938 l 2,78,79
 397.052734375 138.38671875 397.052734375 138.38671875 349.774414062 97.9775390625 c 128,-1,80
 302.49609375 57.568359375 302.49609375 57.568359375 223.869140625 57.3056640625 c 1,81,-1
 242.7265625 164.247070312 l 2,82,83
 242.90625 165.265625 242.90625 165.265625 241.887695312 165.265625 c 2,84,-1
 186.888671875 165.265625 l 2,85,86
 185.870117188 165.265625 185.870117188 165.265625 185.690429688 164.247070312 c 2,87,-1
 166.833007812 57.3056640625 l 1,88,89
 88.30078125 57.568359375 88.30078125 57.568359375 55.271484375 97.9775390625 c 128,-1,90
 22.2431640625 138.38671875 22.2431640625 138.38671875 36.142578125 217.209960938 c 2,91,-1
 73.8564453125 431.095703125 l 2,70,71
222.670898438 56.2861328125 m 1,92,93
 302.114257812 56.2861328125 302.114257812 56.2861328125 350.038085938 97.0263671875 c 128,-1,94
 397.961914062 137.766601562 397.961914062 137.766601562 411.970703125 217.209960938 c 2,95,-1
 449.684570312 431.095703125 l 2,96,97
 463.692382812 510.5390625 463.692382812 510.5390625 430.135742188 551.279296875 c 128,-1,98
 396.579101562 592.01953125 396.579101562 592.01953125 317.135742188 592.01953125 c 2,99,-1
 262.13671875 592.01953125 l 2,100,101
 182.693359375 592.01953125 182.693359375 592.01953125 134.76953125 551.279296875 c 128,-1,102
 86.845703125 510.5390625 86.845703125 510.5390625 72.837890625 431.095703125 c 2,103,-1
 35.1240234375 217.209960938 l 2,104,105
 21.115234375 137.766601562 21.115234375 137.766601562 54.671875 97.0263671875 c 128,-1,106
 88.228515625 56.2861328125 88.228515625 56.2861328125 167.671875 56.2861328125 c 1,107,-1
 186.708984375 164.247070312 l 1,108,-1
 241.708007812 164.247070312 l 1,109,-1
 222.670898438 56.2861328125 l 1,92,93
502.647460938 431.095703125 m 2,110,-1
 464.93359375 217.209960938 l 2,111,112
 454.723632812 159.306640625 454.723632812 159.306640625 429 116.307617188 c 128,-1,113
 403.276367188 73.30859375 403.276367188 73.30859375 367.758789062 49.5126953125 c 128,-1,114
 332.2421875 25.7177734375 332.2421875 25.7177734375 293.795898438 14.5205078125 c 128,-1,115
 255.350585938 3.3232421875 255.350585938 3.3232421875 213.33203125 3.3232421875 c 2,116,-1
 158.333007812 3.3232421875 l 2,117,118
 116.315429688 3.3232421875 116.315429688 3.3232421875 81.818359375 14.5205078125 c 128,-1,119
 47.322265625 25.7177734375 47.322265625 25.7177734375 20.1962890625 49.5126953125 c 128,-1,120
 -6.9287109375 73.30859375 -6.9287109375 73.30859375 -17.48828125 116.307617188 c 128,-1,121
 -28.0478515625 159.306640625 -28.0478515625 159.306640625 -17.837890625 217.209960938 c 2,122,-1
 19.8759765625 431.095703125 l 2,123,124
 30.0859375 488.999023438 30.0859375 488.999023438 55.80859375 531.998046875 c 128,-1,125
 81.53125 574.997070312 81.53125 574.997070312 117.049804688 598.791992188 c 128,-1,126
 152.56640625 622.587890625 152.56640625 622.587890625 191.01171875 633.784179688 c 128,-1,127
 229.458007812 644.981445312 229.458007812 644.981445312 271.475585938 644.981445312 c 2,128,-1
 326.474609375 644.981445312 l 2,129,130
 368.493164062 644.981445312 368.493164062 644.981445312 402.989257812 633.784179688 c 128,-1,131
 437.486328125 622.587890625 437.486328125 622.587890625 464.612304688 598.791992188 c 128,-1,132
 491.737304688 574.997070312 491.737304688 574.997070312 502.296875 531.998046875 c 128,-1,133
 512.857421875 488.999023438 512.857421875 488.999023438 502.647460938 431.095703125 c 2,110,-1
EndSplineSet
EndChar

StartChar: R
Encoding: 82 82 33
Width: 543
VWidth: 1000
Flags: W
LayerCount: 2
Fore
SplineSet
62.48046875 378.475585938 m 1,0,-1
 100.194335938 592.362304688 l 1,1,-1
 316.1171875 592.362304688 l 2,2,3
 393.638671875 592.362304688 393.638671875 592.362304688 428.888671875 555.775390625 c 128,-1,4
 464.137695312 519.1875 464.137695312 519.1875 453.334960938 457.918945312 c 0,5,6
 450.383789062 441.18359375 450.383789062 441.18359375 444.444335938 428.518554688 c 128,-1,7
 438.506835938 415.853515625 438.506835938 415.853515625 432.100585938 407.413085938 c 128,-1,8
 425.6953125 398.97265625 425.6953125 398.97265625 413.615234375 393.313476562 c 128,-1,9
 401.53515625 387.654296875 401.53515625 387.654296875 392.678710938 384.71484375 c 128,-1,10
 383.822265625 381.775390625 383.822265625 381.775390625 366.181640625 380.342773438 c 128,-1,11
 348.540039062 378.91015625 348.540039062 378.91015625 337.811523438 378.692382812 c 128,-1,12
 327.083984375 378.475585938 327.083984375 378.475585938 304.884765625 378.475585938 c 2,13,-1
 62.48046875 378.475585938 l 1,0,-1
269.064453125 325.513671875 m 2,14,15
 310.41015625 325.513671875 310.41015625 325.513671875 361.733398438 277.500976562 c 128,-1,16
 413.056640625 229.489257812 413.056640625 229.489257812 406.282226562 191.071289062 c 2,17,-1
 373.237304688 3.666015625 l 1,18,-1
 426.200195312 3.666015625 l 1,19,-1
 463.915039062 217.552734375 l 2,20,21
 467.110351562 235.67578125 467.110351562 235.67578125 459.598632812 251.678710938 c 128,-1,22
 452.087890625 267.680664062 452.087890625 267.680664062 440.8125 277.57421875 c 128,-1,23
 429.537109375 287.46875 429.537109375 287.46875 417.379882812 300.693359375 c 128,-1,24
 405.223632812 313.918945312 405.223632812 313.918945312 401.470703125 325.513671875 c 1,25,26
 424.896484375 325.513671875 424.896484375 325.513671875 459.97265625 359.818359375 c 128,-1,27
 495.048828125 394.124023438 495.048828125 394.124023438 501.62890625 431.438476562 c 2,28,-1
 510.966796875 484.400390625 l 2,29,30
 514.872070312 506.543945312 514.872070312 506.543945312 508.010742188 532.268554688 c 128,-1,31
 501.150390625 557.993164062 501.150390625 557.993164062 482.599609375 584.342773438 c 128,-1,32
 464.046875 610.69140625 464.046875 610.69140625 423.10546875 628.0078125 c 128,-1,33
 382.1640625 645.32421875 382.1640625 645.32421875 325.456054688 645.32421875 c 2,34,-1
 56.5712890625 645.32421875 l 1,35,-1
 -56.5712890625 3.666015625 l 1,36,-1
 -3.609375 3.666015625 l 1,37,-1
 53.1416015625 325.513671875 l 1,38,-1
 269.064453125 325.513671875 l 2,14,15
EndSplineSet
EndChar

StartChar: S
Encoding: 83 83 34
Width: 543
VWidth: 1000
Flags: W
LayerCount: 2
Fore
SplineSet
265.276367188 3.388671875 m 2,0,1
 302.698242188 3.388671875 302.698242188 3.388671875 337.810546875 20.88671875 c 128,-1,2
 372.921875 38.384765625 372.921875 38.384765625 396.564453125 64.1884765625 c 128,-1,3
 420.208007812 89.9921875 420.208007812 89.9921875 435.53515625 116.625976562 c 128,-1,4
 450.864257812 143.260742188 450.864257812 143.260742188 454.576171875 164.3125 c 2,5,-1
 463.915039062 217.275390625 l 2,6,7
 474.038085938 274.688476562 474.038085938 274.688476562 431.546875 313.203125 c 128,-1,8
 389.0546875 351.717773438 389.0546875 351.717773438 326.696289062 351.717773438 c 2,9,-1
 192.25390625 351.717773438 l 2,10,11
 59.84765625 351.717773438 59.84765625 351.717773438 78.525390625 457.642578125 c 0,12,13
 89.0703125 517.443359375 89.0703125 517.443359375 132.168945312 554.763671875 c 128,-1,14
 175.268554688 592.084960938 175.268554688 592.084960938 234.637695312 592.084960938 c 2,15,-1
 530.00390625 592.084960938 l 1,16,17
 510.767578125 613.881835938 510.767578125 613.881835938 501.66015625 622.317382812 c 128,-1,18
 492.551757812 630.752929688 492.551757812 630.752929688 474.66015625 637.900390625 c 128,-1,19
 456.76953125 645.046875 456.76953125 645.046875 431.380859375 645.046875 c 2,20,-1
 217.495117188 645.046875 l 2,21,22
 180.073242188 645.046875 180.073242188 645.046875 144.9609375 627.548828125 c 128,-1,23
 109.849609375 610.05078125 109.849609375 610.05078125 86.20703125 584.247070312 c 128,-1,24
 62.564453125 558.444335938 62.564453125 558.444335938 47.236328125 531.809570312 c 128,-1,25
 31.9072265625 505.174804688 31.9072265625 505.174804688 28.1953125 484.123046875 c 2,26,-1
 18.857421875 431.161132812 l 2,27,28
 8.6865234375 373.481445312 8.6865234375 373.481445312 50.6181640625 335.100585938 c 128,-1,29
 92.5498046875 296.71875 92.5498046875 296.71875 156.075195312 296.71875 c 2,30,-1
 290.517578125 296.71875 l 2,31,32
 422.923828125 296.71875 422.923828125 296.71875 404.24609375 190.793945312 c 0,33,34
 393.702148438 130.993164062 393.702148438 130.993164062 350.602539062 93.6728515625 c 128,-1,35
 307.502929688 56.3515625 307.502929688 56.3515625 248.133789062 56.3515625 c 2,36,-1
 -47.232421875 56.3515625 l 1,37,38
 -27.9951171875 34.5537109375 -27.9951171875 34.5537109375 -18.888671875 26.1181640625 c 128,-1,39
 -9.7802734375 17.6826171875 -9.7802734375 17.6826171875 8.111328125 10.5361328125 c 128,-1,40
 26.0029296875 3.388671875 26.0029296875 3.388671875 51.390625 3.388671875 c 2,41,-1
 265.276367188 3.388671875 l 2,0,1
EndSplineSet
EndChar

StartChar: T
Encoding: 84 84 35
Width: 543
VWidth: 1000
Flags: W
LayerCount: 2
Fore
SplineSet
212.315429688 3.39453125 m 1,0,-1
 157.315429688 3.39453125 l 1,1,-1
 261.118164062 592.08984375 l 1,2,-1
 47.232421875 592.08984375 l 1,3,-1
 56.5703125 645.051757812 l 1,4,-1
 539.341796875 645.051757812 l 1,5,-1
 530.00390625 592.08984375 l 1,6,-1
 316.118164062 592.08984375 l 1,7,-1
 212.315429688 3.39453125 l 1,0,-1
EndSplineSet
EndChar

StartChar: U
Encoding: 85 85 36
Width: 543
VWidth: 1000
Flags: W
LayerCount: 2
Fore
SplineSet
109.534179688 644.91015625 m 1,0,-1
 56.5712890625 644.91015625 l 1,1,-1
 -18.857421875 217.137695312 l 2,2,3
 -29.0673828125 159.234375 -29.0673828125 159.234375 -18.5068359375 116.235351562 c 128,-1,4
 -7.947265625 73.236328125 -7.947265625 73.236328125 19.177734375 49.44140625 c 128,-1,5
 46.3037109375 25.6455078125 46.3037109375 25.6455078125 80.80078125 14.44921875 c 128,-1,6
 115.296875 3.251953125 115.296875 3.251953125 157.315429688 3.251953125 c 2,7,-1
 212.314453125 3.251953125 l 2,8,9
 254.33203125 3.251953125 254.33203125 3.251953125 292.778320312 14.44921875 c 128,-1,10
 331.223632812 25.6455078125 331.223632812 25.6455078125 366.740234375 49.44140625 c 128,-1,11
 402.258789062 73.236328125 402.258789062 73.236328125 427.981445312 116.235351562 c 128,-1,12
 453.704101562 159.234375 453.704101562 159.234375 463.9140625 217.137695312 c 2,13,-1
 539.342773438 644.91015625 l 1,14,-1
 486.380859375 644.91015625 l 1,15,-1
 410.952148438 217.137695312 l 2,16,17
 396.944335938 137.6953125 396.944335938 137.6953125 349.020507812 96.9541015625 c 128,-1,18
 301.096679688 56.2138671875 301.096679688 56.2138671875 221.653320312 56.2138671875 c 2,19,-1
 166.654296875 56.2138671875 l 2,20,21
 87.2109375 56.2138671875 87.2109375 56.2138671875 53.654296875 96.9541015625 c 128,-1,22
 20.09765625 137.694335938 20.09765625 137.694335938 34.10546875 217.137695312 c 2,23,-1
 109.534179688 644.91015625 l 1,0,-1
EndSplineSet
EndChar

StartChar: V
Encoding: 86 86 37
Width: 543
VWidth: 1000
Flags: W
LayerCount: 2
Fore
SplineSet
149.16796875 3.2890625 m 1,0,-1
 220.462890625 3.2890625 l 1,1,-1
 539.341796875 644.946289062 l 1,2,-1
 484.342773438 644.946289062 l 1,3,-1
 195.171875 56.2509765625 l 1,4,-1
 111.569335938 644.946289062 l 1,5,-1
 56.5703125 644.946289062 l 1,6,-1
 149.16796875 3.2890625 l 1,0,-1
EndSplineSet
EndChar

StartChar: W
Encoding: 87 87 38
Width: 705
VWidth: 1000
Flags: W
LayerCount: 2
Fore
SplineSet
308.383789062 214.479492188 m 2,0,1
 308.258789062 215.165039062 308.258789062 215.165039062 307.521484375 215.149414062 c 128,-1,2
 306.783203125 215.1328125 306.783203125 215.1328125 306.444335938 214.4375 c 2,3,-1
 204.61328125 5.341796875 l 1,4,-1
 132.776367188 5.341796875 l 1,5,-1
 49.2978515625 593.178710938 l 1,6,-1
 58.4287109375 644.962890625 l 1,7,-1
 109.353515625 644.962890625 l 1,8,9
 100.166015625 592.860351562 100.166015625 592.860351562 100.1875 592.709960938 c 2,10,-1
 176.83203125 56.9765625 l 2,11,12
 176.932617188 56.271484375 176.932617188 56.271484375 177.6796875 56.2724609375 c 128,-1,13
 178.427734375 56.2744140625 178.427734375 56.2744140625 178.774414062 56.9794921875 c 0,14,15
 442.383789062 592.862304688 442.383789062 592.862304688 442.412109375 593.01953125 c 2,16,-1
 451.571289062 644.962890625 l 1,17,-1
 502.497070312 644.962890625 l 1,18,-1
 493.365234375 593.174804688 l 1,19,20
 340.197265625 279.319335938 340.197265625 279.319335938 340.239257812 279.015625 c 2,21,-1
 370.34765625 56.982421875 l 2,22,23
 370.443359375 56.275390625 370.443359375 56.275390625 371.190429688 56.2724609375 c 128,-1,24
 371.938476562 56.2705078125 371.938476562 56.2705078125 372.288085938 56.9765625 c 0,25,26
 637.936523438 592.860351562 637.936523438 592.860351562 637.96484375 593.01953125 c 2,27,-1
 647.124023438 644.962890625 l 1,28,-1
 698.049804688 644.962890625 l 1,29,-1
 688.918945312 593.178710938 l 1,30,-1
 398.134765625 5.341796875 l 1,31,-1
 346.633789062 5.341796875 l 1,32,-1
 308.383789062 214.479492188 l 2,0,1
111.5703125 645.981445312 m 2,33,34
 111.749023438 647 111.749023438 647 110.73046875 647 c 2,35,-1
 57.7685546875 647 l 2,36,37
 56.75 647 56.75 647 56.5712890625 645.981445312 c 0,38,39
 47.2041015625 592.860351562 47.2041015625 592.860351562 47.2255859375 592.7109375 c 2,40,-1
 130.828125 4.0146484375 l 2,41,42
 130.928710938 3.3046875 130.928710938 3.3046875 131.673828125 3.3046875 c 2,43,-1
 205.005859375 3.3046875 l 2,44,45
 205.755859375 3.3046875 205.755859375 3.3046875 206.104492188 4.021484375 c 2,46,-1
 306.869140625 210.927734375 l 1,47,-1
 344.71875 3.9794921875 l 2,48,49
 344.841796875 3.3046875 344.841796875 3.3046875 345.559570312 3.3046875 c 2,50,-1
 398.521484375 3.3046875 l 2,51,52
 399.266601562 3.3046875 399.266601562 3.3046875 399.6171875 4.0146484375 c 0,53,54
 690.899414062 592.860351562 690.899414062 592.860351562 690.927734375 593.01953125 c 2,55,-1
 700.266601562 645.981445312 l 2,56,57
 700.4453125 647 700.4453125 647 699.426757812 647 c 2,58,-1
 646.463867188 647 l 2,59,60
 645.4453125 647 645.4453125 647 645.266601562 645.981445312 c 2,61,-1
 635.956054688 593.178710938 l 1,62,-1
 371.98046875 60.669921875 l 1,63,-1
 342.331054688 279.319335938 l 1,64,65
 495.34765625 592.864257812 495.34765625 592.864257812 495.375 593.01953125 c 2,66,-1
 504.713867188 645.981445312 l 2,67,68
 504.892578125 647 504.892578125 647 503.874023438 647 c 2,69,-1
 450.911132812 647 l 2,70,71
 449.892578125 647 449.892578125 647 449.713867188 645.981445312 c 2,72,-1
 440.40234375 593.176757812 l 1,73,-1
 178.4453125 60.65234375 l 1,74,-1
 102.259765625 593.178710938 l 1,75,-1
 111.5703125 645.981445312 l 2,33,34
307.365234375 214.135742188 m 1,76,-1
 205.184570312 4.3232421875 l 1,77,-1
 131.852539062 4.3232421875 l 1,78,-1
 48.2509765625 593.01953125 l 1,79,-1
 57.58984375 645.981445312 l 1,80,-1
 110.551757812 645.981445312 l 1,81,-1
 101.212890625 593.01953125 l 1,82,-1
 177.857421875 57.2861328125 l 1,83,-1
 441.393554688 593.01953125 l 1,84,-1
 450.732421875 645.981445312 l 1,85,-1
 503.6953125 645.981445312 l 1,86,-1
 494.356445312 593.01953125 l 1,87,-1
 341.264648438 279.319335938 l 1,88,-1
 371.373046875 57.2861328125 l 1,89,-1
 636.946289062 593.01953125 l 1,90,-1
 646.28515625 645.981445312 l 1,91,-1
 699.248046875 645.981445312 l 1,92,-1
 689.909179688 593.01953125 l 1,93,-1
 398.700195312 4.3232421875 l 1,94,-1
 345.73828125 4.3232421875 l 1,95,-1
 307.365234375 214.135742188 l 1,76,-1
EndSplineSet
EndChar

StartChar: X
Encoding: 88 88 39
Width: 543
VWidth: 1000
Flags: W
LayerCount: 2
Fore
SplineSet
15.4287109375 111.806640625 m 1,0,-1
 -3.6083984375 3.8447265625 l 1,1,-1
 -56.5712890625 3.8447265625 l 1,2,-1
 -37.5341796875 111.806640625 l 1,3,-1
 218.735351562 352.173828125 l 1,4,-1
 47.232421875 592.541015625 l 1,5,-1
 56.5712890625 645.502929688 l 1,6,-1
 109.534179688 645.502929688 l 1,7,-1
 100.1953125 592.541015625 l 1,8,-1
 252.28125 380.69140625 l 1,9,-1
 477.041992188 592.541015625 l 1,10,-1
 486.380859375 645.502929688 l 1,11,-1
 539.342773438 645.502929688 l 1,12,-1
 530.00390625 592.541015625 l 1,13,-1
 273.734375 352.173828125 l 1,14,-1
 445.237304688 111.806640625 l 1,15,-1
 426.200195312 3.8447265625 l 1,16,-1
 373.23828125 3.8447265625 l 1,17,-1
 392.275390625 111.806640625 l 1,18,-1
 241.865234375 321.618164062 l 1,19,-1
 15.4287109375 111.806640625 l 1,0,-1
EndSplineSet
EndChar

StartChar: Y
Encoding: 89 89 40
Width: 543
VWidth: 1000
Flags: W
LayerCount: 2
Fore
SplineSet
212.313476562 3.4482421875 m 1,0,-1
 157.314453125 3.4482421875 l 1,1,-1
 204.3671875 270.295898438 l 1,2,3
 162.53515625 270.295898438 162.53515625 270.295898438 127.932617188 281.770507812 c 128,-1,4
 93.3291015625 293.245117188 93.3291015625 293.245117188 66.3359375 317.258789062 c 128,-1,5
 39.341796875 341.272460938 39.341796875 341.272460938 28.7255859375 384.130859375 c 128,-1,6
 18.1103515625 426.98828125 18.1103515625 426.98828125 28.1953125 484.182617188 c 2,7,-1
 56.5712890625 645.106445312 l 1,8,-1
 109.533203125 645.106445312 l 1,9,-1
 81.1572265625 484.182617188 l 2,10,11
 53.1416015625 325.295898438 53.1416015625 325.295898438 214.065429688 325.295898438 c 2,12,-1
 269.064453125 325.295898438 l 2,13,14
 429.98828125 325.295898438 429.98828125 325.295898438 458.00390625 484.182617188 c 2,15,-1
 486.379882812 645.106445312 l 1,16,-1
 539.341796875 645.106445312 l 1,17,-1
 510.965820312 484.182617188 l 2,18,19
 493.315429688 384.08203125 493.315429688 384.08203125 425.600585938 327.189453125 c 128,-1,20
 357.885742188 270.295898438 357.885742188 270.295898438 259.366210938 270.295898438 c 1,21,-1
 212.313476562 3.4482421875 l 1,0,-1
EndSplineSet
EndChar

StartChar: Z
Encoding: 90 90 41
Width: 543
VWidth: 1000
Flags: W
LayerCount: 2
Fore
SplineSet
435.5390625 56.0791015625 m 1,0,-1
 426.200195312 3.1171875 l 1,1,-1
 -56.5712890625 3.1171875 l 1,2,-1
 -37.5341796875 111.078125 l 1,3,-1
 467.34375 536.813476562 l 1,4,-1
 477.041992188 591.8125 l 1,5,-1
 47.232421875 591.8125 l 1,6,-1
 56.5712890625 644.775390625 l 1,7,-1
 539.342773438 644.775390625 l 1,8,-1
 520.305664062 536.813476562 l 1,9,-1
 15.427734375 111.078125 l 1,10,-1
 5.7294921875 56.0791015625 l 1,11,-1
 435.5390625 56.0791015625 l 1,0,-1
EndSplineSet
EndChar

StartChar: a
Encoding: 97 97 42
Width: 377
VWidth: 1000
Flags: W
LayerCount: 2
Fore
SplineSet
119.008789062 267.046875 m 1,0,-1
 186.526367188 399.520507812 l 1,1,-1
 207.325195312 267.046875 l 1,2,-1
 119.008789062 267.046875 l 1,0,-1
216.188476562 214.860351562 m 1,3,-1
 241.94140625 110.487304688 l 1,4,-1
 223.18359375 4.107421875 l 1,5,-1
 275.370117188 4.107421875 l 1,6,-1
 289.172851562 82.38671875 l 1,7,-1
 226.421875 477.799804688 l 1,8,-1
 174.235351562 477.799804688 l 1,9,-1
 -27.9599609375 82.38671875 l 1,10,-1
 -41.7626953125 4.107421875 l 1,11,-1
 10.423828125 4.107421875 l 1,12,-1
 29.181640625 110.487304688 l 1,13,-1
 91.7431640625 214.860351562 l 1,14,-1
 216.188476562 214.860351562 l 1,3,-1
EndSplineSet
EndChar

StartChar: b
Encoding: 98 98 43
Width: 378
VWidth: 1000
Flags: W
LayerCount: 2
Fore
SplineSet
84.9990234375 425.793945312 m 1,0,-1
 61.5712890625 292.92578125 l 1,1,-1
 168.267578125 292.92578125 l 2,2,3
 274.963867188 292.92578125 274.963867188 292.92578125 284.192382812 345.267578125 c 0,4,5
 290.740234375 382.397460938 290.740234375 382.397460938 262.420898438 404.095703125 c 128,-1,6
 234.1015625 425.793945312 234.1015625 425.793945312 191.6953125 425.793945312 c 2,7,-1
 84.9990234375 425.793945312 l 1,0,-1
52.341796875 240.584960938 m 1,8,-1
 19.6845703125 55.3759765625 l 1,9,-1
 126.380859375 55.3759765625 l 2,10,11
 233.077148438 55.3759765625 233.077148438 55.3759765625 244.791015625 121.809570312 c 0,12,13
 251.771484375 161.3984375 251.771484375 161.3984375 212.6328125 200.991210938 c 128,-1,14
 173.495117188 240.584960938 173.495117188 240.584960938 132.8671875 240.584960938 c 2,15,-1
 52.341796875 240.584960938 l 1,8,-1
-41.88671875 3.0341796875 m 1,16,-1
 41.88671875 478.134765625 l 1,17,-1
 148.583007812 478.134765625 l 2,18,19
 205.1328125 478.134765625 205.1328125 478.134765625 245.92578125 465.294921875 c 128,-1,20
 286.719726562 452.456054688 286.719726562 452.456054688 306.2578125 431.807617188 c 128,-1,21
 325.796875 411.158203125 325.796875 411.158203125 333.108398438 389.236328125 c 128,-1,22
 340.421875 367.314453125 340.421875 367.314453125 336.534179688 345.267578125 c 0,23,24
 329.977539062 308.08203125 329.977539062 308.08203125 294.94140625 287.418945312 c 128,-1,25
 259.90625 266.755859375 259.90625 266.755859375 215.994140625 266.755859375 c 1,26,27
 263.915039062 241.215820312 263.915039062 241.215820312 284.052734375 201.5234375 c 128,-1,28
 304.190429688 161.83203125 304.190429688 161.83203125 299.618164062 135.901367188 c 0,29,30
 297.204101562 122.211914062 297.204101562 122.211914062 294.294921875 111.397460938 c 128,-1,31
 291.38671875 100.583007812 291.38671875 100.583007812 279.041015625 78.462890625 c 128,-1,32
 266.693359375 56.341796875 266.693359375 56.341796875 248.9140625 41.6298828125 c 128,-1,33
 231.133789062 26.91796875 231.133789062 26.91796875 196.59765625 14.9765625 c 128,-1,34
 162.060546875 3.0341796875 162.060546875 3.0341796875 117.151367188 3.0341796875 c 2,35,-1
 -41.88671875 3.0341796875 l 1,16,-1
EndSplineSet
EndChar

StartChar: c
Encoding: 99 99 44
Width: 378
VWidth: 1000
Flags: W
LayerCount: 2
Fore
SplineSet
350.733398438 426.526367188 m 1,0,-1
 191.6953125 426.526367188 l 2,1,2
 134.321289062 426.526367188 134.321289062 426.526367188 105.311523438 401.865234375 c 128,-1,3
 76.302734375 377.204101562 76.302734375 377.204101562 66.185546875 319.830078125 c 2,4,-1
 38.498046875 162.8046875 l 2,5,6
 27.72265625 101.697265625 27.72265625 101.697265625 47.19921875 78.90234375 c 128,-1,7
 66.67578125 56.1083984375 66.67578125 56.1083984375 126.380859375 56.1083984375 c 2,8,-1
 285.418945312 56.1083984375 l 1,9,10
 258.811523438 34.56640625 258.811523438 34.56640625 246.870117188 26.2294921875 c 128,-1,11
 234.928710938 17.892578125 234.928710938 17.892578125 214.755859375 10.830078125 c 128,-1,12
 194.583984375 3.7666015625 194.583984375 3.7666015625 169.493164062 3.7666015625 c 2,13,-1
 117.151367188 3.7666015625 l 2,14,15
 -41.88671875 3.7666015625 -41.88671875 3.7666015625 -13.84375 162.8046875 c 2,16,-1
 13.84375 319.830078125 l 2,17,18
 41.88671875 478.868164062 41.88671875 478.868164062 200.924804688 478.868164062 c 2,19,-1
 253.266601562 478.868164062 l 2,20,21
 278.357421875 478.868164062 278.357421875 478.868164062 296.0390625 471.8046875 c 128,-1,22
 313.719726562 464.7421875 313.719726562 464.7421875 322.721679688 456.405273438 c 128,-1,23
 331.723632812 448.068359375 331.723632812 448.068359375 350.733398438 426.526367188 c 1,0,-1
EndSplineSet
EndChar

StartChar: d
Encoding: 100 100 45
Width: 377
VWidth: 1000
Flags: W
LayerCount: 2
Fore
SplineSet
-41.7626953125 3.9892578125 m 1,0,-1
 41.7626953125 477.682617188 l 1,1,-1
 148.143554688 477.682617188 l 2,2,3
 205.198242188 477.682617188 205.198242188 477.682617188 244.415039062 459.806640625 c 128,-1,4
 283.6328125 441.931640625 283.6328125 441.931640625 301.637695312 411.068359375 c 128,-1,5
 319.642578125 380.206054688 319.642578125 380.206054688 324.338867188 344.268554688 c 128,-1,6
 329.03515625 308.331054688 329.03515625 308.331054688 321.734375 266.928710938 c 2,7,-1
 303.331054688 162.555664062 l 2,8,9
 275.37109375 3.9892578125 275.37109375 3.9892578125 116.8046875 3.9892578125 c 2,10,-1
 -41.7626953125 3.9892578125 l 1,0,-1
84.7470703125 425.49609375 m 1,11,-1
 19.6259765625 56.17578125 l 1,12,-1
 126.006835938 56.17578125 l 2,13,14
 179.221679688 56.17578125 179.221679688 56.17578125 211.319335938 87.44921875 c 128,-1,15
 243.415039062 118.72265625 243.415039062 118.72265625 251.14453125 162.555664062 c 2,16,-1
 278.75 319.115234375 l 2,17,18
 285.651367188 358.254882812 285.651367188 358.254882812 257.959960938 391.875976562 c 128,-1,19
 230.267578125 425.49609375 230.267578125 425.49609375 191.127929688 425.49609375 c 2,20,-1
 84.7470703125 425.49609375 l 1,11,-1
EndSplineSet
EndChar

StartChar: e
Encoding: 101 101 46
Width: 377
VWidth: 1000
Flags: W
LayerCount: 2
Fore
SplineSet
19.6259765625 55.9921875 m 1,0,-1
 284.573242188 55.9921875 l 1,1,-1
 275.37109375 3.8056640625 l 1,2,-1
 -41.7626953125 3.8056640625 l 1,3,-1
 41.7626953125 477.499023438 l 1,4,-1
 358.896484375 477.499023438 l 1,5,-1
 349.694335938 425.3125 l 1,6,-1
 84.7470703125 425.3125 l 1,7,-1
 61.388671875 292.838867188 l 1,8,-1
 326.3359375 292.838867188 l 1,9,-1
 317.133789062 240.65234375 l 1,10,-1
 52.1865234375 240.65234375 l 1,11,-1
 19.6259765625 55.9921875 l 1,0,-1
EndSplineSet
EndChar

StartChar: f
Encoding: 102 102 47
Width: 326
VWidth: 1000
Flags: W
LayerCount: 2
Fore
SplineSet
53.5263671875 241.44921875 m 2,0,1
 52.51953125 241.44921875 52.51953125 241.44921875 52.341796875 240.442382812 c 2,2,-1
 10.6328125 3.8994140625 l 1,3,-1
 -39.6953125 3.8994140625 l 1,4,-1
 43.72265625 476.986328125 l 1,5,-1
 305.430664062 476.986328125 l 1,6,-1
 296.556640625 426.658203125 l 1,7,-1
 86.18359375 426.658203125 l 2,8,9
 85.1767578125 426.658203125 85.1767578125 426.658203125 84.9990234375 425.651367188 c 2,10,-1
 61.5712890625 292.784179688 l 2,11,12
 61.3935546875 291.77734375 61.3935546875 291.77734375 62.400390625 291.77734375 c 2,13,-1
 272.7734375 291.77734375 l 1,14,-1
 263.899414062 241.44921875 l 1,15,-1
 53.5263671875 241.44921875 l 2,0,1
86.8349609375 424.64453125 m 1,16,-1
 297.208007812 424.64453125 l 2,17,18
 298.21484375 424.64453125 298.21484375 424.64453125 298.392578125 425.651367188 c 2,19,-1
 307.622070312 477.993164062 l 2,20,21
 307.799804688 479 307.799804688 479 306.79296875 479 c 2,22,-1
 43.0712890625 479 l 2,23,24
 42.064453125 479 42.064453125 479 41.88671875 477.993164062 c 2,25,-1
 -41.88671875 2.892578125 l 2,26,27
 -42.064453125 1.8857421875 -42.064453125 1.8857421875 -41.0576171875 1.8857421875 c 2,28,-1
 11.2841796875 1.8857421875 l 2,29,30
 12.291015625 1.8857421875 12.291015625 1.8857421875 12.46875 2.892578125 c 2,31,-1
 54.177734375 239.435546875 l 1,32,-1
 264.55078125 239.435546875 l 2,33,34
 265.557617188 239.435546875 265.557617188 239.435546875 265.735351562 240.442382812 c 2,35,-1
 274.96484375 292.784179688 l 2,36,37
 275.141601562 293.791015625 275.141601562 293.791015625 274.134765625 293.791015625 c 2,38,-1
 63.76171875 293.791015625 l 1,39,-1
 86.8349609375 424.64453125 l 1,16,-1
53.3486328125 240.442382812 m 1,40,-1
 11.4619140625 2.892578125 l 1,41,-1
 -40.8798828125 2.892578125 l 1,42,-1
 42.8935546875 477.993164062 l 1,43,-1
 306.615234375 477.993164062 l 1,44,-1
 297.385742188 425.651367188 l 1,45,-1
 86.005859375 425.651367188 l 1,46,-1
 62.578125 292.784179688 l 1,47,-1
 273.958007812 292.784179688 l 1,48,-1
 264.728515625 240.442382812 l 1,49,-1
 53.3486328125 240.442382812 l 1,40,-1
EndSplineSet
EndChar

StartChar: g
Encoding: 103 103 48
Width: 378
VWidth: 1000
Flags: W
LayerCount: 2
Fore
SplineSet
251.890625 162.119140625 m 2,0,-1
 265.734375 240.630859375 l 1,1,-1
 159.038085938 240.630859375 l 1,2,-1
 168.267578125 292.97265625 l 1,3,-1
 327.305664062 292.97265625 l 1,4,-1
 285.418945312 55.421875 l 2,5,6
 281.958007812 35.7939453125 281.958007812 35.7939453125 262.716796875 19.4375 c 128,-1,7
 243.475585938 3.0810546875 243.475585938 3.0810546875 223.84765625 3.0810546875 c 2,8,-1
 117.151367188 3.0810546875 l 2,9,10
 -41.88671875 3.0810546875 -41.88671875 3.0810546875 -13.84375 162.119140625 c 2,11,-1
 13.84375 319.143554688 l 2,12,13
 41.88671875 478.181640625 41.88671875 478.181640625 200.924804688 478.181640625 c 2,14,-1
 359.962890625 478.181640625 l 1,15,-1
 350.733398438 425.83984375 l 1,16,-1
 191.6953125 425.83984375 l 2,17,18
 131.698242188 425.83984375 131.698242188 425.83984375 104.168945312 402.135742188 c 128,-1,19
 76.638671875 378.432617188 76.638671875 378.432617188 66.1845703125 319.143554688 c 2,20,-1
 38.4970703125 162.119140625 l 2,21,22
 28.04296875 102.830078125 28.04296875 102.830078125 47.2138671875 79.1259765625 c 128,-1,23
 66.384765625 55.421875 66.384765625 55.421875 126.380859375 55.421875 c 0,24,25
 206.403320312 55.421875 206.403320312 55.421875 222.091796875 68.7587890625 c 128,-1,26
 237.780273438 82.095703125 237.780273438 82.095703125 251.890625 162.119140625 c 2,0,-1
EndSplineSet
EndChar

StartChar: h
Encoding: 104 104 49
Width: 377
VWidth: 1000
Flags: W
LayerCount: 2
Fore
SplineSet
52.1865234375 241.0078125 m 1,0,-1
 10.423828125 4.1611328125 l 1,1,-1
 -41.7626953125 4.1611328125 l 1,2,-1
 41.7626953125 477.853515625 l 1,3,-1
 93.94921875 477.853515625 l 1,4,-1
 61.388671875 293.194335938 l 1,5,-1
 274.149414062 293.194335938 l 1,6,-1
 306.709960938 477.853515625 l 1,7,-1
 358.896484375 477.853515625 l 1,8,-1
 275.37109375 4.1611328125 l 1,9,-1
 223.184570312 4.1611328125 l 1,10,-1
 264.947265625 241.0078125 l 1,11,-1
 52.1865234375 241.0078125 l 1,0,-1
EndSplineSet
EndChar

StartChar: i
Encoding: 105 105 50
Width: 112
VWidth: 1000
Flags: W
LayerCount: 2
Fore
SplineSet
41.88671875 479.051757812 m 1,0,-1
 94.228515625 479.051757812 l 1,1,-1
 10.455078125 3.9501953125 l 1,2,-1
 -41.88671875 3.9501953125 l 1,3,-1
 41.88671875 479.051757812 l 1,0,-1
EndSplineSet
EndChar

StartChar: j
Encoding: 106 106 51
Width: 378
VWidth: 1000
Flags: W
LayerCount: 2
Fore
SplineSet
307.62109375 478.725585938 m 1,0,-1
 359.962890625 478.725585938 l 1,1,-1
 304.232421875 162.663085938 l 2,2,3
 290.947265625 87.318359375 290.947265625 87.318359375 236.142578125 45.4716796875 c 128,-1,4
 181.336914062 3.625 181.336914062 3.625 117.151367188 3.625 c 128,-1,5
 52.9658203125 3.625 52.9658203125 3.625 12.91796875 45.4716796875 c 128,-1,6
 -27.12890625 87.318359375 -27.12890625 87.318359375 -13.84375 162.663085938 c 2,7,-1
 -4.6142578125 215.004882812 l 1,8,-1
 47.7275390625 215.004882812 l 1,9,-1
 38.498046875 162.663085938 l 2,10,11
 28.671875 106.936523438 28.671875 106.936523438 55.0693359375 81.4521484375 c 128,-1,12
 81.466796875 55.966796875 81.466796875 55.966796875 126.380859375 55.966796875 c 128,-1,13
 171.294921875 55.966796875 171.294921875 55.966796875 206.680664062 81.4521484375 c 128,-1,14
 242.064453125 106.936523438 242.064453125 106.936523438 251.890625 162.663085938 c 2,15,-1
 307.62109375 478.725585938 l 1,0,-1
EndSplineSet
EndChar

StartChar: k
Encoding: 107 107 52
Width: 378
VWidth: 1000
Flags: W
LayerCount: 2
Fore
SplineSet
47.7275390625 215.1171875 m 1,0,-1
 10.455078125 3.7373046875 l 1,1,-1
 -41.88671875 3.7373046875 l 1,2,-1
 41.88671875 478.838867188 l 1,3,-1
 94.228515625 478.838867188 l 1,4,-1
 56.9560546875 267.458984375 l 1,5,-1
 305.608398438 478.838867188 l 1,6,-1
 359.962890625 478.838867188 l 1,7,-1
 111.311523438 267.458984375 l 1,8,-1
 163.65234375 267.458984375 l 2,9,10
 322.690429688 267.458984375 322.690429688 267.458984375 295.002929688 110.43359375 c 2,11,-1
 276.189453125 3.7373046875 l 1,12,-1
 221.834960938 3.7373046875 l 1,13,-1
 249.877929688 162.775390625 l 2,14,15
 253.338867188 182.403320312 253.338867188 182.403320312 239.866210938 198.760742188 c 128,-1,16
 226.393554688 215.1171875 226.393554688 215.1171875 206.765625 215.1171875 c 2,17,-1
 47.7275390625 215.1171875 l 1,0,-1
EndSplineSet
EndChar

StartChar: l
Encoding: 108 108 53
Width: 324
VWidth: 1000
Flags: W
LayerCount: 2
Fore
SplineSet
231.064453125 56.0791015625 m 1,0,-1
 221.834960938 3.7373046875 l 1,1,-1
 -41.88671875 3.7373046875 l 1,2,-1
 41.88671875 478.838867188 l 1,3,-1
 94.228515625 478.838867188 l 1,4,-1
 19.6845703125 56.0791015625 l 1,5,-1
 231.064453125 56.0791015625 l 1,0,-1
EndSplineSet
EndChar

StartChar: m
Encoding: 109 109 54
Width: 482
VWidth: 1000
Flags: W
LayerCount: 2
Fore
SplineSet
66.34375 321.19921875 m 1,0,-1
 10.423828125 4.0654296875 l 1,1,-1
 -41.7626953125 4.0654296875 l 1,2,-1
 41.7626953125 477.758789062 l 1,3,-1
 196.950195312 162.631835938 l 1,4,-1
 463.268554688 477.758789062 l 1,5,-1
 379.743164062 4.0654296875 l 1,6,-1
 327.556640625 4.0654296875 l 1,7,-1
 383.4765625 321.19921875 l 1,8,-1
 183.147460938 84.3525390625 l 1,9,-1
 66.34375 321.19921875 l 1,0,-1
EndSplineSet
EndChar

StartChar: n
Encoding: 110 110 55
Width: 377
VWidth: 1000
Flags: W
LayerCount: 2
Fore
SplineSet
84.7470703125 425.666992188 m 1,0,-1
 10.423828125 4.1611328125 l 1,1,-1
 -41.7626953125 4.1611328125 l 1,2,-1
 41.7626953125 477.853515625 l 1,3,-1
 148.142578125 477.853515625 l 2,4,5
 205.197265625 477.853515625 205.197265625 477.853515625 244.4140625 459.977539062 c 128,-1,6
 283.631835938 442.102539062 283.631835938 442.102539062 301.63671875 411.240234375 c 128,-1,7
 319.640625 380.376953125 319.640625 380.376953125 324.337890625 344.440429688 c 128,-1,8
 329.034179688 308.502929688 329.034179688 308.502929688 321.733398438 267.100585938 c 2,9,-1
 275.370117188 4.1611328125 l 1,10,-1
 223.18359375 4.1611328125 l 1,11,-1
 278.749023438 319.287109375 l 2,12,13
 285.650390625 358.426757812 285.650390625 358.426757812 257.958984375 392.046875 c 128,-1,14
 230.266601562 425.666992188 230.266601562 425.666992188 191.126953125 425.666992188 c 2,15,-1
 84.7470703125 425.666992188 l 1,0,-1
EndSplineSet
EndChar

StartChar: o
Encoding: 111 111 56
Width: 430
VWidth: 1000
Flags: W
LayerCount: 2
Fore
SplineSet
13.84375 319.80078125 m 2,0,-1
 -13.84375 162.775390625 l 2,1,2
 -41.88671875 3.7373046875 -41.88671875 3.7373046875 117.151367188 3.7373046875 c 2,3,-1
 169.493164062 3.7373046875 l 2,4,5
 328.53125 3.7373046875 328.53125 3.7373046875 356.57421875 162.775390625 c 2,6,-1
 384.26171875 319.80078125 l 2,7,8
 412.3046875 478.838867188 412.3046875 478.838867188 253.266601562 478.838867188 c 2,9,-1
 200.924804688 478.838867188 l 2,10,11
 41.88671875 478.838867188 41.88671875 478.838867188 13.84375 319.80078125 c 2,0,-1
178.72265625 56.0791015625 m 2,12,-1
 126.380859375 56.0791015625 l 2,13,14
 67.49609375 56.0791015625 67.49609375 56.0791015625 47.8056640625 79.9853515625 c 128,-1,15
 28.115234375 103.890625 28.115234375 103.890625 38.498046875 162.775390625 c 2,16,-1
 66.185546875 319.80078125 l 2,17,18
 76.568359375 378.685546875 76.568359375 378.685546875 104.690429688 402.590820312 c 128,-1,19
 132.810546875 426.497070312 132.810546875 426.497070312 191.6953125 426.497070312 c 2,20,-1
 244.037109375 426.497070312 l 2,21,22
 301.024414062 426.497070312 301.024414062 426.497070312 321.431640625 401.27734375 c 128,-1,23
 341.83984375 376.057617188 341.83984375 376.057617188 331.919921875 319.80078125 c 2,24,-1
 304.232421875 162.775390625 l 2,25,26
 293.849609375 103.890625 293.849609375 103.890625 265.727539062 79.9853515625 c 128,-1,27
 237.607421875 56.0791015625 237.607421875 56.0791015625 178.72265625 56.0791015625 c 2,12,-1
EndSplineSet
EndChar

StartChar: p
Encoding: 112 112 57
Width: 378
VWidth: 1000
Flags: W
LayerCount: 2
Fore
SplineSet
47.7275390625 214.418945312 m 1,0,-1
 10.455078125 3.0390625 l 1,1,-1
 -41.88671875 3.0390625 l 1,2,-1
 41.88671875 478.140625 l 1,3,-1
 148.583007812 478.140625 l 2,4,5
 205.1328125 478.140625 205.1328125 478.140625 245.926757812 465.30078125 c 128,-1,6
 286.719726562 452.461914062 286.719726562 452.461914062 306.2578125 431.8125 c 128,-1,7
 325.796875 411.1640625 325.796875 411.1640625 333.108398438 389.2421875 c 128,-1,8
 340.421875 367.3203125 340.421875 367.3203125 336.53515625 345.2734375 c 2,9,-1
 331.919921875 319.102539062 l 2,10,11
 324.405273438 276.481445312 324.405273438 276.481445312 277.161132812 245.450195312 c 128,-1,12
 229.916015625 214.418945312 229.916015625 214.418945312 154.423828125 214.418945312 c 2,13,-1
 47.7275390625 214.418945312 l 1,0,-1
84.9990234375 425.798828125 m 1,14,-1
 56.9560546875 266.760742188 l 1,15,-1
 163.65234375 266.760742188 l 2,16,17
 184.669921875 266.760742188 184.669921875 266.760742188 195.567382812 267.23046875 c 128,-1,18
 206.46484375 267.701171875 206.46484375 267.701171875 223.9453125 271.07421875 c 128,-1,19
 241.426757812 274.447265625 241.426757812 274.447265625 251.021484375 281.048828125 c 128,-1,20
 260.6171875 287.650390625 260.6171875 287.650390625 269.649414062 300.8359375 c 128,-1,21
 278.682617188 314.021484375 278.682617188 314.021484375 282.063476562 333.194335938 c 0,22,23
 290.235351562 379.541015625 290.235351562 379.541015625 262.952148438 402.669921875 c 128,-1,24
 235.668945312 425.798828125 235.668945312 425.798828125 191.6953125 425.798828125 c 2,25,-1
 84.9990234375 425.798828125 l 1,14,-1
EndSplineSet
EndChar

StartChar: q
Encoding: 113 113 58
Width: 431
VWidth: 1000
Flags: W
LayerCount: 2
Fore
SplineSet
283.875976562 36.017578125 m 128,-1,1
 283.612304688 36.017578125 283.612304688 36.017578125 278.583007812 32.7138671875 c 128,-1,2
 273.552734375 29.4111328125 273.552734375 29.4111328125 264.123046875 24.6962890625 c 128,-1,3
 254.694335938 19.9814453125 254.694335938 19.9814453125 241.998046875 15.2666015625 c 128,-1,4
 229.301757812 10.5517578125 229.301757812 10.5517578125 210.1171875 7.2490234375 c 128,-1,5
 190.932617188 3.9453125 190.932617188 3.9453125 169.98046875 3.9453125 c 2,6,-1
 117.864257812 3.9453125 l 2,7,8
 -39.4873046875 3.9453125 -39.4873046875 3.9453125 -11.7421875 161.296875 c 2,9,-1
 15.826171875 317.64453125 l 2,10,11
 43.572265625 474.99609375 43.572265625 474.99609375 200.923828125 474.99609375 c 2,12,-1
 253.040039062 474.99609375 l 2,13,14
 408.385742188 474.99609375 408.385742188 474.99609375 380.639648438 317.64453125 c 2,15,-1
 353.071289062 161.296875 l 2,16,17
 346.866210938 126.104492188 346.866210938 126.104492188 336.216796875 101.688476562 c 128,-1,18
 325.56640625 77.2724609375 325.56640625 77.2724609375 319.536132812 69.9580078125 c 128,-1,19
 313.506835938 62.6435546875 313.506835938 62.6435546875 313.984375 62.2587890625 c 2,20,-1
 343.819335938 38.205078125 l 2,21,22
 365.698242188 21.6767578125 365.698242188 21.6767578125 353.23046875 9.3515625 c 0,23,24
 338.377929688 -3.23046875 338.377929688 -3.23046875 314.58984375 13.80078125 c 0,25,0
 284.172851562 36.017578125 284.172851562 36.017578125 283.875976562 36.017578125 c 128,-1,1
13.822265625 317.64453125 m 2,26,-1
 -13.74609375 161.296875 l 2,27,28
 -41.8447265625 1.94140625 -41.8447265625 1.94140625 117.510742188 1.94140625 c 2,29,-1
 169.626953125 1.94140625 l 2,30,31
 236.047851562 1.94140625 236.047851562 1.94140625 283.53125 33.791015625 c 1,32,-1
 313.185546875 12.1318359375 l 2,33,34
 337.516601562 -6.25 337.516601562 -6.25 353.603515625 7.1650390625 c 0,35,36
 367.99609375 19.1689453125 367.99609375 19.1689453125 349.41015625 36.3857421875 c 0,37,38
 347.508789062 38.1474609375 347.508789062 38.1474609375 345.262695312 39.84375 c 0,39,40
 345.254882812 39.849609375 345.254882812 39.849609375 339.049804688 44.8515625 c 128,-1,41
 332.845703125 49.8544921875 332.845703125 49.8544921875 325.310546875 55.9287109375 c 128,-1,42
 317.776367188 62.00390625 317.776367188 62.00390625 316.123046875 63.3369140625 c 0,43,44
 343.670898438 96.615234375 343.670898438 96.615234375 355.075195312 161.296875 c 2,45,-1
 382.643554688 317.64453125 l 2,46,47
 410.7421875 477 410.7421875 477 253.392578125 477 c 2,48,-1
 201.276367188 477 l 2,49,50
 41.9208984375 477 41.9208984375 477 13.822265625 317.64453125 c 2,26,-1
40.3740234375 161.296875 m 2,51,-1
 67.9423828125 317.64453125 l 2,52,53
 78.2255859375 375.958984375 78.2255859375 375.958984375 105.822265625 399.419921875 c 128,-1,54
 133.419921875 422.879882812 133.419921875 422.879882812 191.734375 422.879882812 c 2,55,-1
 243.850585938 422.879882812 l 2,56,57
 299.981445312 422.879882812 299.981445312 422.879882812 319.188476562 398.259765625 c 128,-1,58
 338.397460938 373.638671875 338.397460938 373.638671875 328.5234375 317.64453125 c 2,59,-1
 300.955078125 161.296875 l 2,60,61
 292.756835938 114.797851562 292.756835938 114.797851562 275.50390625 92.5654296875 c 1,62,-1
 248.083984375 114.015625 l 2,63,64
 226.489257812 130.91015625 226.489257812 130.91015625 210.423828125 117.48828125 c 0,65,66
 195.40625 104.942382812 195.40625 104.942382812 213.366210938 88.533203125 c 0,67,68
 214.606445312 87.400390625 214.606445312 87.400390625 216.006835938 86.3046875 c 2,69,-1
 241.337890625 67.1689453125 l 1,70,71
 218.475585938 56.0615234375 218.475585938 56.0615234375 179.169921875 56.0615234375 c 2,72,-1
 127.053710938 56.0615234375 l 2,73,74
 68.7392578125 56.0615234375 68.7392578125 56.0615234375 49.4150390625 79.521484375 c 128,-1,75
 30.091796875 102.982421875 30.091796875 102.982421875 40.3740234375 161.296875 c 2,51,-1
38.3701171875 161.296875 m 2,76,77
 27.9765625 102.349609375 27.9765625 102.349609375 47.8642578125 78.203125 c 128,-1,78
 67.7529296875 54.0576171875 67.7529296875 54.0576171875 126.700195312 54.0576171875 c 2,79,-1
 178.81640625 54.0576171875 l 2,80,81
 220.174804688 54.0576171875 220.174804688 54.0576171875 243.594726562 66.2158203125 c 0,82,83
 244.12890625 66.4931640625 244.12890625 66.4931640625 244.247070312 67.052734375 c 128,-1,84
 244.365234375 67.611328125 244.365234375 67.611328125 243.954101562 67.921875 c 2,85,-1
 217.431640625 87.95703125 l 2,86,87
 198.147460938 103.044921875 198.147460938 103.044921875 210.73828125 115.299804688 c 0,88,89
 225.635742188 127.780273438 225.635742188 127.780273438 246.659179688 112.36328125 c 0,90,91
 275.067382812 90.138671875 275.067382812 90.138671875 275.37890625 90.138671875 c 0,92,93
 275.93359375 90.138671875 275.93359375 90.138671875 276.3125 90.6103515625 c 0,94,95
 294.49609375 113.301757812 294.49609375 113.301757812 302.958984375 161.296875 c 2,96,-1
 330.52734375 317.64453125 l 2,97,98
 340.51171875 374.265625 340.51171875 374.265625 320.765625 399.575195312 c 128,-1,99
 301.018554688 424.883789062 301.018554688 424.883789062 244.203125 424.883789062 c 2,100,-1
 192.086914062 424.883789062 l 2,101,102
 133.139648438 424.883789062 133.139648438 424.883789062 104.736328125 400.73828125 c 128,-1,103
 76.3330078125 376.591796875 76.3330078125 376.591796875 65.9384765625 317.64453125 c 2,104,-1
 38.3701171875 161.296875 l 2,76,77
39.3720703125 161.296875 m 2,105,106
 29.0341796875 102.666015625 29.0341796875 102.666015625 48.6396484375 78.8623046875 c 128,-1,107
 68.24609375 55.0595703125 68.24609375 55.0595703125 126.876953125 55.0595703125 c 2,108,-1
 178.993164062 55.0595703125 l 2,109,110
 220.084960938 55.0595703125 220.084960938 55.0595703125 243.251953125 67.0869140625 c 1,111,-1
 216.719726562 87.130859375 l 2,112,113
 197.575195312 102.108398438 197.575195312 102.108398438 209.31640625 115.15234375 c 0,114,115
 222.249023438 129.51953125 222.249023438 129.51953125 243.814453125 115.71484375 c 0,116,117
 245.62109375 114.55859375 245.62109375 114.55859375 247.372070312 113.189453125 c 2,118,-1
 275.555664062 91.140625 l 1,119,120
 293.544921875 113.58984375 293.544921875 113.58984375 301.95703125 161.296875 c 2,121,-1
 329.525390625 317.64453125 l 2,122,123
 339.454101562 373.952148438 339.454101562 373.952148438 319.977539062 398.916992188 c 128,-1,124
 300.5 423.881835938 300.5 423.881835938 244.026367188 423.881835938 c 2,125,-1
 191.91015625 423.881835938 l 2,126,127
 133.279296875 423.881835938 133.279296875 423.881835938 105.279296875 400.079101562 c 128,-1,128
 77.279296875 376.275390625 77.279296875 376.275390625 66.9404296875 317.64453125 c 2,129,-1
 39.3720703125 161.296875 l 2,105,106
14.82421875 317.64453125 m 2,130,131
 42.74609375 475.998046875 42.74609375 475.998046875 201.099609375 475.998046875 c 2,132,-1
 253.215820312 475.998046875 l 2,133,134
 409.563476562 475.998046875 409.563476562 475.998046875 381.641601562 317.64453125 c 2,135,-1
 354.073242188 161.296875 l 2,136,137
 342.5859375 96.1494140625 342.5859375 96.1494140625 314.706054688 63.078125 c 1,138,-1
 344.541015625 39.0244140625 l 2,139,140
 366.168945312 22.685546875 366.168945312 22.685546875 354.670898438 9.5087890625 c 0,141,142
 342.390625 -4.5654296875 342.390625 -4.5654296875 318.828125 9.6171875 c 0,143,144
 316.326171875 11.123046875 316.326171875 11.123046875 313.887695312 12.9658203125 c 2,145,-1
 283.69921875 35.015625 l 1,146,147
 236.3515625 2.943359375 236.3515625 2.943359375 169.803710938 2.943359375 c 2,148,-1
 117.6875 2.943359375 l 2,149,150
 -40.666015625 2.943359375 -40.666015625 2.943359375 -12.744140625 161.296875 c 2,151,-1
 14.82421875 317.64453125 l 2,130,131
EndSplineSet
EndChar

StartChar: r
Encoding: 114 114 59
Width: 378
VWidth: 1000
Flags: W
LayerCount: 2
Fore
SplineSet
47.7275390625 214.389648438 m 1,0,-1
 10.455078125 3.009765625 l 1,1,-1
 -41.88671875 3.009765625 l 1,2,-1
 41.88671875 478.111328125 l 1,3,-1
 148.583007812 478.111328125 l 2,4,5
 204.626953125 478.111328125 204.626953125 478.111328125 245.088867188 460.998046875 c 128,-1,6
 285.55078125 443.884765625 285.55078125 443.884765625 303.884765625 417.84375 c 128,-1,7
 322.21875 391.803710938 322.21875 391.803710938 328.999023438 366.379882812 c 128,-1,8
 335.778320312 340.956054688 335.778320312 340.956054688 331.919921875 319.072265625 c 0,9,10
 324.388671875 276.360351562 324.388671875 276.360351562 297.87109375 245.375 c 128,-1,11
 271.353515625 214.389648438 271.353515625 214.389648438 232.936523438 214.389648438 c 1,12,13
 256.086914062 214.389648438 256.086914062 214.389648438 278.795898438 180.486328125 c 128,-1,14
 301.505859375 146.583007812 301.505859375 146.583007812 295.002929688 109.706054688 c 2,15,-1
 276.189453125 3.009765625 l 1,16,-1
 223.84765625 3.009765625 l 1,17,-1
 242.661132812 109.706054688 l 2,18,19
 248.913085938 145.163085938 248.913085938 145.163085938 213.747070312 179.776367188 c 128,-1,20
 178.581054688 214.389648438 178.581054688 214.389648438 154.423828125 214.389648438 c 2,21,-1
 47.7275390625 214.389648438 l 1,0,-1
163.65234375 266.731445312 m 2,22,23
 181.155273438 266.731445312 181.155273438 266.731445312 190.22265625 267.014648438 c 128,-1,24
 199.2890625 267.297851562 199.2890625 267.297851562 214.470703125 268.62890625 c 128,-1,25
 229.653320312 269.9609375 229.653320312 269.9609375 238.231445312 273.314453125 c 128,-1,26
 246.810546875 276.668945312 246.810546875 276.668945312 256.603515625 282.19921875 c 128,-1,27
 266.3984375 287.729492188 266.3984375 287.729492188 271.870117188 297.0625 c 128,-1,28
 277.342773438 306.39453125 277.342773438 306.39453125 279.578125 319.072265625 c 0,29,30
 286.5 358.329101562 286.5 358.329101562 258.7265625 392.048828125 c 128,-1,31
 230.951171875 425.76953125 230.951171875 425.76953125 191.6953125 425.76953125 c 2,32,-1
 84.9990234375 425.76953125 l 1,33,-1
 56.9560546875 266.731445312 l 1,34,-1
 163.65234375 266.731445312 l 2,22,23
EndSplineSet
EndChar

StartChar: s
Encoding: 115 115 60
Width: 377
VWidth: 1000
Flags: W
LayerCount: 2
Fore
SplineSet
-32.560546875 56.0751953125 m 1,0,-1
 126.006835938 56.0751953125 l 2,1,2
 169.559570312 56.0751953125 169.559570312 56.0751953125 204.64453125 82.5869140625 c 128,-1,3
 239.729492188 109.09765625 239.729492188 109.09765625 249.137695312 162.455078125 c 0,4,5
 253.598632812 187.7578125 253.598632812 187.7578125 248.610351562 204.150390625 c 128,-1,6
 243.62109375 220.54296875 243.62109375 220.54296875 229.077148438 228.11328125 c 128,-1,7
 214.533203125 235.68359375 214.533203125 235.68359375 198.666015625 238.209960938 c 128,-1,8
 182.797851562 240.735351562 182.797851562 240.735351562 158.567382812 240.735351562 c 0,9,10
 -0 240.735351562 -0 240.735351562 13.802734375 319.014648438 c 2,11,-1
 23.0048828125 371.201171875 l 2,12,13
 30.69140625 414.795898438 30.69140625 414.795898438 78.349609375 446.189453125 c 128,-1,14
 126.0078125 477.58203125 126.0078125 477.58203125 200.330078125 477.58203125 c 2,15,-1
 252.516601562 477.58203125 l 2,16,17
 277.532226562 477.58203125 277.532226562 477.58203125 295.161132812 470.540039062 c 128,-1,18
 312.791015625 463.498046875 312.791015625 463.498046875 321.765625 455.185546875 c 128,-1,19
 330.740234375 446.873046875 330.740234375 446.873046875 349.694335938 425.395507812 c 1,20,-1
 191.127929688 425.395507812 l 2,21,22
 148.541992188 425.395507812 148.541992188 425.395507812 113.947265625 404.403320312 c 128,-1,23
 79.3525390625 383.412109375 79.3525390625 383.412109375 72.59765625 345.108398438 c 0,24,25
 69.93359375 329.999023438 69.93359375 329.999023438 75.0078125 319.4453125 c 128,-1,26
 80.08203125 308.891601562 80.08203125 308.891601562 87.828125 303.779296875 c 128,-1,27
 95.5751953125 298.666015625 95.5751953125 298.666015625 110.741210938 296.030273438 c 128,-1,28
 125.907226562 293.39453125 125.907226562 293.39453125 135.094726562 293.09375 c 128,-1,29
 144.280273438 292.79296875 144.280273438 292.79296875 160.569335938 292.892578125 c 0,30,31
 165.466796875 292.921875 165.466796875 292.921875 167.76953125 292.921875 c 0,32,33
 248.959960938 292.921875 248.959960938 292.921875 283.463867188 269.198242188 c 128,-1,34
 317.969726562 245.473632812 317.969726562 245.473632812 307.931640625 188.548828125 c 2,35,-1
 298.73046875 136.362304688 l 2,36,37
 287.885742188 74.859375 287.885742188 74.859375 240.743164062 39.3740234375 c 128,-1,38
 193.600585938 3.888671875 193.600585938 3.888671875 116.8046875 3.888671875 c 2,39,-1
 64.6181640625 3.888671875 l 2,40,41
 39.6025390625 3.888671875 39.6025390625 3.888671875 21.9736328125 10.9306640625 c 128,-1,42
 4.34375 17.97265625 4.34375 17.97265625 -4.630859375 26.28515625 c 128,-1,43
 -13.60546875 34.5966796875 -13.60546875 34.5966796875 -32.560546875 56.0751953125 c 1,0,-1
EndSplineSet
EndChar

StartChar: t
Encoding: 116 116 61
Width: 378
VWidth: 1000
Flags: W
LayerCount: 2
Fore
SplineSet
143.322265625 3.0810546875 m 1,0,-1
 90.98046875 3.0810546875 l 1,1,-1
 165.524414062 425.83984375 l 1,2,-1
 32.6572265625 425.83984375 l 1,3,-1
 41.88671875 478.181640625 l 1,4,-1
 359.962890625 478.181640625 l 1,5,-1
 350.733398438 425.83984375 l 1,6,-1
 217.866210938 425.83984375 l 1,7,-1
 143.322265625 3.0810546875 l 1,0,-1
EndSplineSet
EndChar

StartChar: u
Encoding: 117 117 62
Width: 430
VWidth: 1000
Flags: W
LayerCount: 2
Fore
SplineSet
94.228515625 478.73828125 m 1,0,-1
 41.88671875 478.73828125 l 1,1,-1
 -13.84375 162.674804688 l 2,2,3
 -41.88671875 3.63671875 -41.88671875 3.63671875 117.151367188 3.63671875 c 2,4,-1
 169.493164062 3.63671875 l 2,5,6
 328.53125 3.63671875 328.53125 3.63671875 356.57421875 162.674804688 c 2,7,-1
 412.3046875 478.73828125 l 1,8,-1
 359.962890625 478.73828125 l 1,9,-1
 304.232421875 162.674804688 l 2,10,11
 293.849609375 103.790039062 293.849609375 103.790039062 265.727539062 79.884765625 c 128,-1,12
 237.607421875 55.978515625 237.607421875 55.978515625 178.72265625 55.978515625 c 2,13,-1
 126.380859375 55.978515625 l 2,14,15
 67.4970703125 55.978515625 67.4970703125 55.978515625 47.8056640625 79.884765625 c 128,-1,16
 28.115234375 103.790039062 28.115234375 103.790039062 38.498046875 162.674804688 c 2,17,-1
 94.228515625 478.73828125 l 1,0,-1
EndSplineSet
EndChar

StartChar: v
Encoding: 118 118 63
Width: 429
VWidth: 1000
Flags: W
LayerCount: 2
Fore
SplineSet
168.991210938 4.232421875 m 1,0,-1
 116.8046875 4.232421875 l 1,1,-1
 32.560546875 425.73828125 l 1,2,-1
 41.7626953125 477.924804688 l 1,3,-1
 93.94921875 477.924804688 l 1,4,-1
 81.5615234375 407.673828125 l 1,5,-1
 152.099609375 56.4189453125 l 1,6,-1
 346.508789062 407.673828125 l 1,7,-1
 358.896484375 477.924804688 l 1,8,-1
 411.083007812 477.924804688 l 1,9,-1
 401.880859375 425.73828125 l 1,10,-1
 168.991210938 4.232421875 l 1,0,-1
EndSplineSet
EndChar

StartChar: w
Encoding: 119 119 64
Width: 630
VWidth: 1000
Flags: W
LayerCount: 2
Fore
SplineSet
403.107421875 424.833984375 m 1,0,1
 311.13671875 257.560546875 311.13671875 257.560546875 311.20703125 257.20703125 c 2,2,-1
 351.854492188 53.87890625 l 2,3,4
 351.984375 53.23046875 351.984375 53.23046875 352.682617188 53.23046875 c 128,-1,5
 353.380859375 53.23046875 353.380859375 53.23046875 353.739257812 53.87890625 c 0,6,7
 548.8203125 406.349609375 548.8203125 406.349609375 548.853515625 406.533203125 c 2,8,-1
 561.099609375 475.986328125 l 1,9,-1
 611.427734375 475.986328125 l 1,10,-1
 602.408203125 424.834960938 l 1,11,-1
 369.28125 2.8994140625 l 1,12,-1
 330.416015625 2.8994140625 l 1,13,-1
 289.302734375 213.62109375 l 2,14,15
 289.17578125 214.271484375 289.17578125 214.271484375 288.478515625 214.274414062 c 128,-1,16
 287.780273438 214.27734375 287.780273438 214.27734375 287.418945312 213.62890625 c 2,17,-1
 169.983398438 2.8994140625 l 1,18,-1
 119.033203125 2.8994140625 l 1,19,-1
 34.703125 424.834960938 l 1,20,-1
 43.72265625 475.986328125 l 1,21,-1
 94.05078125 475.986328125 l 1,22,23
 81.771484375 406.349609375 81.771484375 406.349609375 81.806640625 406.178710938 c 2,24,-1
 152.553710938 53.87890625 l 2,25,26
 152.68359375 53.23046875 152.68359375 53.23046875 153.381835938 53.23046875 c 128,-1,27
 154.080078125 53.23046875 154.080078125 53.23046875 154.438476562 53.87890625 c 0,28,29
 349.51953125 406.349609375 349.51953125 406.349609375 349.552734375 406.533203125 c 2,30,-1
 361.798828125 475.986328125 l 1,31,-1
 412.126953125 475.986328125 l 1,32,-1
 403.107421875 424.833984375 l 1,0,1
404.963867188 424.299804688 m 2,33,34
 405.056640625 424.46875 405.056640625 424.46875 414.318359375 476.993164062 c 0,35,36
 414.49609375 478 414.49609375 478 413.489257812 478 c 2,37,-1
 361.147460938 478 l 2,38,39
 360.140625 478 360.140625 478 359.962890625 476.993164062 c 2,40,-1
 347.571289062 406.716796875 l 1,41,-1
 154.061523438 57.0859375 l 1,42,-1
 83.8505859375 406.716796875 l 1,43,-1
 96.2421875 476.993164062 l 2,44,45
 96.419921875 478 96.419921875 478 95.4130859375 478 c 2,46,-1
 43.0712890625 478 l 2,47,48
 42.064453125 478 42.064453125 478 41.88671875 476.993164062 c 0,49,50
 32.625 424.467773438 32.625 424.467773438 32.6591796875 424.297851562 c 2,51,-1
 117.153320312 1.5390625 l 2,52,53
 117.284179688 0.8857421875 117.284179688 0.8857421875 117.98046875 0.8857421875 c 2,54,-1
 170.322265625 0.8857421875 l 2,55,56
 171.017578125 0.8857421875 171.017578125 0.8857421875 171.377929688 1.53515625 c 2,57,-1
 287.78125 210.412109375 l 1,58,-1
 328.532226562 1.54296875 l 2,59,60
 328.66015625 0.8857421875 328.66015625 0.8857421875 329.360351562 0.8857421875 c 2,61,-1
 369.623046875 0.8857421875 l 2,62,63
 370.319335938 0.8857421875 370.319335938 0.8857421875 370.680664062 1.5390625 c 0,64,65
 604.357421875 424.467773438 604.357421875 424.467773438 604.389648438 424.651367188 c 2,66,-1
 613.619140625 476.993164062 l 2,67,68
 613.796875 478 613.796875 478 612.790039062 478 c 2,69,-1
 560.448242188 478 l 2,70,71
 559.44140625 478 559.44140625 478 559.263671875 476.993164062 c 2,72,-1
 546.872070312 406.716796875 l 1,73,-1
 353.36328125 57.0888671875 l 1,74,-1
 313.288085938 257.5625 l 1,75,-1
 404.963867188 424.299804688 l 2,33,34
312.211914062 257.561523438 m 1,76,-1
 352.859375 54.2333984375 l 1,77,-1
 547.846679688 406.533203125 l 1,78,-1
 560.270507812 476.993164062 l 1,79,-1
 612.612304688 476.993164062 l 1,80,-1
 603.3828125 424.651367188 l 1,81,-1
 369.80078125 1.892578125 l 1,82,-1
 329.538085938 1.892578125 l 1,83,-1
 288.297851562 213.271484375 l 1,84,-1
 170.5 1.892578125 l 1,85,-1
 118.158203125 1.892578125 l 1,86,-1
 33.6640625 424.651367188 l 1,87,-1
 42.8935546875 476.993164062 l 1,88,-1
 95.2353515625 476.993164062 l 1,89,-1
 82.8115234375 406.533203125 l 1,90,-1
 153.55859375 54.2333984375 l 1,91,-1
 348.545898438 406.533203125 l 1,92,-1
 360.969726562 476.993164062 l 1,93,-1
 413.311523438 476.993164062 l 1,94,-1
 404.08203125 424.651367188 l 1,95,-1
 312.211914062 257.561523438 l 1,76,-1
EndSplineSet
EndChar

StartChar: x
Encoding: 120 120 65
Width: 429
VWidth: 1000
Flags: W
LayerCount: 2
Fore
SplineSet
24.2265625 82.14453125 m 1,0,-1
 10.423828125 3.8642578125 l 1,1,-1
 -41.7626953125 3.8642578125 l 1,2,-1
 -27.9599609375 82.14453125 l 1,3,-1
 158.567382812 240.7109375 l 1,4,-1
 27.9599609375 399.27734375 l 1,5,-1
 41.7626953125 477.557617188 l 1,6,-1
 93.94921875 477.557617188 l 1,7,-1
 80.146484375 399.27734375 l 1,8,-1
 189.260742188 266.8046875 l 1,9,-1
 345.09375 399.27734375 l 1,10,-1
 358.896484375 477.557617188 l 1,11,-1
 411.083007812 477.557617188 l 1,12,-1
 397.280273438 399.27734375 l 1,13,-1
 210.75390625 240.7109375 l 1,14,-1
 341.360351562 82.14453125 l 1,15,-1
 327.557617188 3.8642578125 l 1,16,-1
 275.37109375 3.8642578125 l 1,17,-1
 289.173828125 82.14453125 l 1,18,-1
 180.059570312 214.618164062 l 1,19,-1
 24.2265625 82.14453125 l 1,0,-1
EndSplineSet
EndChar

StartChar: y
Encoding: 121 121 66
Width: 325
VWidth: 1000
Flags: W
LayerCount: 2
Fore
SplineSet
305.430664062 475.986328125 m 1,0,-1
 277.565429688 317.955078125 l 2,1,2
 267.237304688 259.380859375 267.237304688 259.380859375 240.709960938 236.829101562 c 128,-1,3
 214.181640625 214.278320312 214.181640625 214.278320312 155.607421875 214.278320312 c 0,4,5
 154.600585938 214.278320312 154.600585938 214.278320312 154.423828125 213.271484375 c 2,6,-1
 117.329101562 2.8994140625 l 1,7,-1
 64.9873046875 2.8994140625 l 1,8,-1
 102.08203125 213.271484375 l 2,9,10
 102.258789062 214.278320312 102.258789062 214.278320312 101.251953125 214.278320312 c 0,11,12
 42.677734375 214.278320312 42.677734375 214.278320312 24.103515625 236.829101562 c 128,-1,13
 5.529296875 259.380859375 5.529296875 259.380859375 15.857421875 317.955078125 c 2,14,-1
 43.72265625 475.986328125 l 1,15,-1
 94.05078125 475.986328125 l 1,16,-1
 66.185546875 317.955078125 l 2,17,18
 59.234375 278.530273438 59.234375 278.530273438 64.96875 271.568359375 c 128,-1,19
 70.703125 264.606445312 70.703125 264.606445312 110.126953125 264.606445312 c 2,20,-1
 164.482421875 264.606445312 l 2,21,22
 203.900390625 264.606445312 203.900390625 264.606445312 212.337890625 271.552734375 c 128,-1,23
 220.776367188 278.499023438 220.776367188 278.499023438 229.2421875 317.916015625 c 2,24,-1
 255.115234375 475.986328125 l 1,25,-1
 305.430664062 475.986328125 l 1,0,-1
63.625 0.8857421875 m 2,26,-1
 117.98046875 0.8857421875 l 2,27,28
 118.987304688 0.8857421875 118.987304688 0.8857421875 119.165039062 1.892578125 c 2,29,-1
 156.259765625 212.266601562 l 1,30,31
 214.883789062 212.4375 214.883789062 212.4375 242.033203125 235.717773438 c 128,-1,32
 269.18359375 258.997070312 269.18359375 258.997070312 279.579101562 317.955078125 c 2,33,-1
 307.622070312 476.993164062 l 2,34,35
 307.799804688 478 307.799804688 478 306.79296875 478 c 2,36,-1
 254.451171875 478 l 2,37,38
 253.444335938 478 253.444335938 478 253.266601562 476.993164062 c 2,39,-1
 227.244140625 317.994140625 l 2,40,41
 218.846679688 278.8984375 218.846679688 278.8984375 211.388671875 272.758789062 c 128,-1,42
 203.931640625 266.620117188 203.931640625 266.620117188 164.836914062 266.620117188 c 2,43,-1
 110.481445312 266.620117188 l 2,44,45
 71.39453125 266.620117188 71.39453125 266.620117188 66.3505859375 272.743164062 c 128,-1,46
 61.306640625 278.8671875 61.306640625 278.8671875 68.19921875 317.955078125 c 2,47,-1
 96.2421875 476.993164062 l 2,48,49
 96.419921875 478 96.419921875 478 95.4130859375 478 c 2,50,-1
 43.0712890625 478 l 2,51,52
 42.064453125 478 42.064453125 478 41.88671875 476.993164062 c 2,53,-1
 13.84375 317.955078125 l 2,54,55
 3.4482421875 258.997070312 3.4482421875 258.997070312 22.3876953125 235.717773438 c 128,-1,56
 41.3271484375 212.4375 41.3271484375 212.4375 99.890625 212.266601562 c 1,57,-1
 62.7958984375 1.892578125 l 2,58,59
 62.6181640625 0.8857421875 62.6181640625 0.8857421875 63.625 0.8857421875 c 2,26,-1
118.158203125 1.892578125 m 1,60,-1
 63.802734375 1.892578125 l 1,61,-1
 101.075195312 213.271484375 l 1,62,63
 42.19140625 213.271484375 42.19140625 213.271484375 23.3291015625 236.170898438 c 128,-1,64
 4.4677734375 259.0703125 4.4677734375 259.0703125 14.8505859375 317.955078125 c 2,65,-1
 42.8935546875 476.993164062 l 1,66,-1
 95.2353515625 476.993164062 l 1,67,-1
 67.1923828125 317.955078125 l 2,68,69
 60.2705078125 278.69921875 60.2705078125 278.69921875 65.66015625 272.15625 c 128,-1,70
 71.0478515625 265.61328125 71.0478515625 265.61328125 110.303710938 265.61328125 c 2,71,-1
 164.659179688 265.61328125 l 2,72,73
 203.915039062 265.61328125 203.915039062 265.61328125 211.864257812 272.15625 c 128,-1,74
 219.811523438 278.69921875 219.811523438 278.69921875 228.243164062 317.955078125 c 2,75,-1
 254.2734375 476.993164062 l 1,76,-1
 306.615234375 476.993164062 l 1,77,-1
 278.572265625 317.955078125 l 2,78,79
 268.189453125 259.0703125 268.189453125 259.0703125 241.251953125 236.170898438 c 128,-1,80
 214.315429688 213.271484375 214.315429688 213.271484375 155.430664062 213.271484375 c 1,81,-1
 118.158203125 1.892578125 l 1,60,-1
EndSplineSet
EndChar

StartChar: z
Encoding: 122 122 67
Width: 378
VWidth: 1000
Flags: W
LayerCount: 2
Fore
SplineSet
285.418945312 55.9072265625 m 1,0,-1
 276.189453125 3.5654296875 l 1,1,-1
 -41.88671875 3.5654296875 l 1,2,-1
 -23.0732421875 110.262695312 l 1,3,-1
 288.807617188 371.970703125 l 1,4,-1
 298.391601562 426.325195312 l 1,5,-1
 32.6572265625 426.325195312 l 1,6,-1
 41.88671875 478.666992188 l 1,7,-1
 359.962890625 478.666992188 l 1,8,-1
 341.149414062 371.970703125 l 1,9,-1
 29.2685546875 110.262695312 l 1,10,-1
 19.6845703125 55.9072265625 l 1,11,-1
 285.418945312 55.9072265625 l 1,0,-1
EndSplineSet
EndChar

